<?xml version="1.0" encoding="UTF-8"?> <!-- Generator: Adobe Illustrator 26.1.0, SVG Export Plug-In . SVG Version: 6.00 Build 0) --> <svg xmlns="http://www.w3.org/2000/svg" xmlns:xlink="http://www.w3.org/1999/xlink" version="1.1" id="Layer_1" x="0px" y="0px" viewBox="0 0 2200 2000" style="enable-background:new 0 0 3600 3600;" xml:space="preserve"> <g> <path fill="#FFFFFF" d="M1095.09,90.64c12.23,0,24.46,0,36.69,0c1.34,0.38,2.65,0.91,4.02,1.13c9.95,1.62,19.99,2.76,29.84,4.83 c18.85,3.97,35.18,13.24,49.06,26.3c8.17,7.68,15.51,16.38,19.54,27.29c5.71,15.47,9.77,31.3,12.04,47.68 c2.23,16.05,5.28,31.94,13.55,46.34c6.62,11.53,16.95,14.3,27.66,6.45c9.79-7.18,16.8-16.72,19.18-28.65 c1.83-9.14,1.95-18.62,2.86-27.95c1.25-12.95,6.19-23.54,18.68-29.35c2.12-0.99,4.14-2.2,6.22-3.29 c21.5-11.25,44.94-17.6,67.35-26.54c2.98-1.19,6.41-1.63,9.64-1.69c5.53-0.09,8.64,2.75,8.25,8.18c-0.34,4.83-1.27,9.87-3.14,14.31 c-8.31,19.7-16.9,39.31-32.28,54.88c-3.21,3.25-3.54,6.94-2.02,11.04c2.05,5.53,5.39,8.92,11.85,9.19 c11.73,0.5,23.44,1.48,35.14,2.42c19.1,1.54,37.43,6.39,55.01,13.83c12.99,5.5,25.36,12.19,36.34,21.27 c2.09,1.72,4.87,2.95,7.53,3.56c7.24,1.65,14.52,1,21.54-1.25c4.7-1.5,7.09-5.12,7.34-10.14c0.26-5.14-1.49-9.64-3.84-14.07 c-2.52-4.76-5.5-9.45-7-14.55c-5.84-19.84-0.11-35.23,17.79-42.6c9.5-3.91,19.3-7.59,29.33-9.59c16.31-3.26,32.81-5.47,48.69-10.78 c3.01-1.01,6.53-0.84,9.78-0.66c5.26,0.3,7.83,2.69,8,7.92c0.15,4.65-0.31,9.38-0.99,14c-1.92,13.04-8.82,24.15-14.24,35.84 c-5.02,10.81-13.32,17.98-24.05,22.64c-3.66,1.59-7.36,3.07-10.98,4.76c-2.33,1.09-4.7,2.23-6.76,3.75 c-4.14,3.05-4.79,6.43-2.72,11.15c2.21,5.04,6.63,7.04,11.46,8.5c6.51,1.95,13.04,3.81,19.53,5.83c22.3,6.96,43.02,17.6,63.4,28.68 c12.11,6.59,23.4,14.82,34.54,23.02c6.58,4.85,13.34,9.01,21.32,10.22c7.85,1.19,15.86,1.5,23.81,1.76 c12.58,0.41,24.18,2.76,33.16,12.74c1.84,2.04,5.24,2.85,8.07,3.78c2.42,0.8,5.06,0.97,7.6,1.42c9.17,1.64,14.52,7.06,16.15,16.23 c2.63,14.82-0.43,29.05-5.1,42.91c-1.88,5.58-6.61,9.04-13.17,8.72c-2.82-0.14-5.66-0.27-8.45,0.02c-1.23,0.13-2.36,1.32-3.55,2.04 c0.73,1.16,0.89,1.67,1.23,1.92c18.27,12.98,29.65,30.2,33.69,52.46c3.54,19.5,9.27,38.28,20.31,55.15 c5.1,7.8,11.55,13.42,20.28,16.62c6.16,2.26,12.28,4.67,18.29,7.3c9.82,4.3,18.41,10.44,25.32,18.66 c16.22,19.31,22.94,41.66,20.97,66.73c-0.77,9.85-4.62,13.6-14.62,14.36c-5.38,0.41-10.8,0.77-16.08,1.78 c-5.8,1.11-8.17,4.7-6.33,10.28c1.9,5.74,4.42,11.4,7.54,16.57c13.9,23.05,22.46,47.97,26.7,74.43c1.22,7.64,1.65,15.41,2.63,23.09 c0.86,6.67,3.64,9.52,10.18,10.8c1.61,0.32,3.27,0.4,4.91,0.48c11.82,0.53,20.98,6.11,28.38,14.98c4.67,5.6,9.59,11.01,13.89,16.87 c8.15,11.09,17.63,20.68,28.99,28.54c3.71,2.57,6.49,6.48,9.7,9.78c0,0.94,0,1.88,0,2.82c-2.55,5.26-6.9,8.6-11.89,11.36 c-12.88,7.12-26.8,11.28-41.15,13.89c-5.96,1.08-12.14,1.31-18.22,1.23c-11.48-0.14-21.06-4.53-27.55-14.36 c-4.4-6.66-8.72-13.39-12.61-20.35c-3.71-6.66-9.45-9.49-16.58-10.31c-5.55-0.63-10.71,0.68-15.63,3.22 c-8.83,4.54-16.84,10.22-24.12,17c-7.76,7.22-15.89,14-25.61,18.5c-26.12,12.1-53.72,17.96-82.37,19.32 c-15.54,0.74-26.53-6.04-33.41-19.97c-3.12-6.31-6.65-12.42-10.22-18.49c-3.55-6.03-8.73-10.43-14.93-13.58 c-10.38-5.28-19.07-1.67-22.7,9.46c-0.72,2.21-1.08,4.58-1.29,6.91c-1.37,15.85,6.06,27.36,19,35.13 c6.72,4.04,14.45,6.81,22.07,8.88c22.87,6.21,45.82,12.07,67.12,22.85c1.45,0.74,3.05,1.19,4.61,1.71 c11.85,3.9,18.51,1.87,25.68-8.11c3.15-4.38,5.99-8.99,8.96-13.5c5.68-8.63,13.2-15.08,22.33-19.98 c15.95-8.57,33.14-11.63,50.91-11.96c20.75-0.38,40.42,4.23,59.24,13.16c10.42,4.95,19.49,11.32,26.72,20.22 c8.95,11.02,16.17,23.07,20.71,36.6c8.47,25.24,9.82,51.14,6.06,77.25c-2,13.9-5.32,27.63-8.39,41.36 c-3.95,17.63-5.21,35.08-0.71,52.94c10.18,40.41-1.16,75.52-29.21,105.06c-15.3,16.11-31.23,32.01-51.33,42.62 c-0.83,0.44-1.56,1.05-2.33,1.58c-30.45,20.98-63.43,37.47-96.19,54.38c-11.24,5.8-22.18,12.25-32.9,18.97 c-10.98,6.88-13.19,18.26-13.53,30.11c-0.12,4.11,1.76,7.18,6.34,8.02c8.63,1.58,16.52,5.16,24.3,9.1c2.27,1.15,4.84,1.88,7.36,2.3 c5.68,0.95,10.99-2.97,11.47-8.69c0.23-2.72-0.39-5.59-1.08-8.28c-0.82-3.17-2.16-6.2-3.25-9.31c-3.61-10.3-1.09-19.19,7.14-25.99 c5.21-4.3,10.96-8.18,17-11.17c11.12-5.51,22.49-10.61,34.03-15.18c12.32-4.88,25.25-7.51,38.59-6.4 c11.02,0.92,15.33,9.61,8.95,18.35c-7.06,9.66-11.92,20.12-14.55,31.76c-1.03,4.56-2.49,9.08-4.33,13.38 c-4.1,9.59-11.22,16.71-19.73,22.49c-6.61,4.49-13.44,8.64-19.99,13.21c-12.35,8.64-20.53,20.23-25.07,34.7 c-4.83,15.4-6.11,31.33-7.91,47.16c-2.37,20.87-11.64,37.17-29.08,49.23c-13.51,9.35-26.72,19.22-39.4,29.66 c-16.41,13.52-29.35,29.76-35.14,50.79c-0.68,2.48-1.86,4.83-2.59,7.3c-8.44,28.44-26.91,49.67-49.16,68.12 c-2.31,1.91-5.14,3.26-7.88,4.56c-20.7,9.91-42.12,10.13-63.93,4.56c-4.77-1.22-9.53-2.52-14.2-4.07 c-5.48-1.82-9.65-0.12-13.05,4.18c-2.19,2.76-4.29,5.59-6.49,8.35c-28.68,36.03-64.36,61.92-108.56,75.94 c-18.12,5.75-35.51,13.14-50.5,25.67c-14.23,11.89-29.41,22.66-44.34,33.7c-11.42,8.44-24,14.31-37.79,18.28 c-15.58,4.48-31.44,5.79-47.34,6.18c-25.38,0.63-50.79,0.45-76.18,0.09c-16.21-0.23-32.41-1.86-48.2-5.53 c-11.62-2.7-22.91-6.84-34.3-10.48c-15.85-5.07-31.53-10.71-47.52-15.29c-13.66-3.91-27.58-5.07-41.64-0.69 c-19.46,6.07-39.01,11.9-58.66,17.33c-22.8,6.31-46,9.36-69.68,6.43c-11.05-1.37-21.6-4.29-30.81-11.01 c-6.61-4.83-10.4-11.16-11.93-19.21c-1.13-5.95-0.4-11.68,0.55-17.48c1.2-7.36,0.01-9.48-6.82-12.6 c-8.69-3.97-17.9-5.42-27.35-5.88c-19.57-0.95-38.97,1.55-58.36,3.37c-29.48,2.76-56.99-2.73-82.8-17.03 c-19.47-10.78-36.48-24.84-52.63-39.98c-15.76-14.78-30.71-30.37-47.46-44.18c-14.11-11.64-29.96-18.34-47.42-21.71 c-12.25-2.37-21.73-8.76-29.36-17.99c-13.28-16.05-15.58-35.23-14.48-55.16c0.43-7.71,2.53-15.03,6.77-21.98 c-8.86-3.27-16.87-6.59-25.12-9.19c-21.34-6.74-39.31-18.98-55.24-34.18c-5.59-5.33-11.1-7.31-18.3-5.71 c-1.14,0.25-2.31,0.4-3.46,0.65c-14.82,3.27-29.75,4.04-44.8,1.99c-18.55-2.52-33.92-11.55-46.1-25.09 c-23.11-25.67-35.53-56.15-37.08-90.75c-0.46-10.3,0.12-20.66,0.4-30.99c0.23-8.66-2.62-12.41-11.29-14.07 c-2.99-0.57-6.02-0.99-9.04-1.35c-16.13-1.92-26.81-10.53-31.67-26.03c-1.54-4.91-2.7-9.98-3.57-15.05 c-2.38-13.92-4.53-27.87-12.93-39.83c-0.53-0.75-0.85-1.67-1.18-2.55c-2.94-7.74-0.52-13.27,7.53-14.82 c6.14-1.18,12.7-1.86,18.85-1.04c12.53,1.67,25.03,3.97,37.3,7.01c13.91,3.45,25.99,10.71,36.17,20.89 c7.52,7.52,9.85,16.18,5.93,26.42c-1.14,2.98-1.57,6.41-1.46,9.61c0.07,2.12,1.17,4.75,2.7,6.19c4.99,4.67,11,4.57,17.16,2.55 c5.37-1.76,7.94-5.51,8.03-11.09c0.19-11.51,0.34-23.03,0.61-34.54c0.09-3.81-1.71-6.28-4.99-7.73c-4.72-2.08-9.48-4.07-14.28-5.96 c-29-11.44-59.18-20.04-86.6-35.27c-10.22-5.68-20.24-11.94-29.6-18.93c-28.06-20.94-46.73-49.23-60.95-80.67 c-3.17-7-5.46-14.51-7.22-22.01c-2.46-10.49-4-21.19-6.04-31.78c-0.57-2.95-1.47-5.83-2.22-8.74c0-7.05,0-14.11,0-21.16 c0.85-2.66,1.99-5.26,2.5-7.98c2.85-15.3,7.06-30.14,14.18-44.07c1.92-3.76,3.63-7.64,5.58-11.39c1.5-2.9,1.78-5.77,0.51-8.8 c-0.91-2.16-1.63-4.41-2.62-6.53c-9.65-20.75-14.47-42.71-15.21-65.44c-0.57-17.46,1.4-34.79,8.16-51.12 c5.4-13.06,12.77-25.1,20.84-36.7c1.02-1.47,1.91-3.04,3.26-5.21c-3.5-1.45-6.41-2.87-9.46-3.86c-3.79-1.23-7.79-1.83-11.51-3.2 c-2.81-1.03-5.65-2.46-7.9-4.39c-4.01-3.44-4.27-8.5-0.92-12.57c1.31-1.59,3.03-3.01,4.85-3.97c11.05-5.84,18.51-15.03,24.21-25.81 c2.74-5.18,5-10.62,7.46-15.95c4.28-9.28,10.33-17.27,17.34-24.68c7.91-8.36,17.46-12.4,28.89-12.29 c5.85,0.06,11.71,0.01,17.99,0.01c1.25-4.29,2.51-8.03,3.41-11.86c4.07-17.37,8.03-34.76,15.34-51.18 c8.13-18.27,16.93-36.1,29-52.2c9.67-12.9,21.12-23.91,33.57-34.03c2.33-1.89,4.62-4.15,6.09-6.72 c4.68-8.18-0.89-17.63-10.23-17.75c-11.13-0.14-21.87,2.06-32.59,4.93c-5.33,1.43-11.08,1.92-16.61,1.81 c-4.96-0.1-6.98-2.82-7.32-7.81c-0.13-1.85,0.14-3.75,0.4-5.6c1.95-13.95,6.89-26.84,14.58-38.56c8.76-13.34,20.63-23,35.76-28.43 c5.3-1.9,10.53-4.18,15.99-5.37c8.22-1.79,13.4-6.79,17.81-13.56c16.27-24.99,32.3-50.18,49.39-74.6 c14.4-20.57,29.53-40.72,45.52-60.08c14.8-17.92,31.2-34.4,50.54-47.85c14.96-10.41,31.26-18.02,47.36-26.22 c18.82-9.58,38.71-15.4,59.38-19.02c6.22-1.09,12.54-2.07,18.53-4.01c8.56-2.77,11.16-11.19,6.12-18.63 c-3.42-5.05-7.05-9.99-10.89-14.72c-5.86-7.22-9.88-15.4-12.74-24.12c-2.84-8.67,0.17-16.5,11.76-16.11 c13.14,0.45,26.31,0.19,39.46,0.51c8.53,0.21,16.88,2,24.44,5.94c10.75,5.6,19.18,14.79,11.4,30.79c-1.13,2.32-2.33,4.65-3.03,7.12 c-1.22,4.31,0.4,7.92,4.43,9.07c8.76,2.5,17.23,2.45,24.36-4.44c2.54-2.45,5.02-4.95,7.56-7.4c11.22-10.78,24.31-18.43,39.24-22.74 c20.18-5.83,40.74-9.12,61.84-8.5c4.46,0.13,8.96,0.18,13.39-0.21c8.34-0.74,12.47-9.98,7.52-16.76c-2.07-2.83-4.57-5.37-7.06-7.87 c-7.51-7.53-12.06-16.72-15.01-26.75c-0.85-2.88-1.25-6.01-1.17-9.01c0.23-8.09,5.69-12.24,13.76-10.61 c2.5,0.51,4.92,1.49,7.33,2.38c5.71,2.1,11.34,4.44,17.09,6.39c9.98,3.39,20.12,6.33,30.04,9.9c9.31,3.35,16.01,9.78,19.29,19.24 c1.37,3.95,2.6,8.13,2.84,12.27c0.61,10.55,0.66,21.13,0.85,31.7c0.06,3.38,0.29,6.38,3.62,8.55c14.74,9.59,25.75,7.29,35.11-7.55 c0.88-1.39,1.73-2.8,2.59-4.2c9.18-15.04,18.4-30.06,27.53-45.12c10.98-18.1,26.34-31.01,45.91-38.99 c14-5.71,28.64-8.87,43.52-11.12C1080.72,92.48,1087.91,91.61,1095.09,90.64z M546.76,1566.45c-2.76-3.22-4.34-5.11-5.98-6.96 c-5.64-6.37-7.96-13.73-6.55-22.16c0.62-3.7,1.08-7.48,2.18-11.05c6.35-20.56,18.9-35.06,40.74-39.4 c8.46-1.68,17.23-2.58,25.85-2.51c14.32,0.12,28.69,0.69,42.92,2.21c24.54,2.63,47.08-2.58,68.17-15.01 c3.64-2.15,7.23-4.42,11.01-6.28c11.86-5.86,24.17-9.83,37.6-10.76c16.83-1.17,33.54-3.31,49.72-8.91 c13.05-4.51,26.61-7.52,39.84-11.54c5.31-1.62,10.71-3.55,15.43-6.41c11.65-7.05,22.95-14.69,34.36-22.13 c16.32-10.64,27.44-25.18,33.97-43.61c4.31-12.17,5.74-24.7,6.53-37.33c1.19-19.23,8.45-36.08,19.8-51.15 c9.75-12.93,19.94-25.6,30.78-37.62c19.57-21.71,35.06-45.85,46.02-72.9c1.85-4.56,3.8-9.14,5.05-13.88 c7.13-27.09,9.13-54.73,6.5-82.5c-2.13-22.5-7.5-44.41-16.51-65.31c-4.27-9.92-8.3-19.94-12.24-30 c-11.14-28.42-32.47-47.88-56.96-64.38c-9.26-6.24-20.04-8.31-31.07-6.35c-9.9,1.76-19.68,4.09-28.65,9.21 c-13.04,7.45-26.54,14.11-39.52,21.67c-22.53,13.13-44.81,26.65-63.97,44.68c-13.77,12.95-26.43,26.76-35.69,43.38 c-1.59,2.86-2.96,5.86-4.16,8.9c-1.42,3.58-0.61,6.95,1.79,9.9c1.18,1.45,2.49,2.81,3.82,4.15c5.47,5.52,7.42,12.18,4.84,19.4 c-2.67,7.47-6.03,14.72-9.57,21.83c-4.5,9.03-9.9,17.62-14.08,26.78c-2.18,4.77-2.64,10.35-3.74,15.59 c-0.57,2.75-0.58,5.63-1.27,8.34c-1.37,5.33-4.21,7.68-9.58,7.41c-3.2-0.16-6.83-0.63-9.4-2.3c-5.06-3.28-10.41-6.8-14.05-11.46 c-14.17-18.12-16.94-38.77-11.25-60.66c4.55-17.49,15.04-29.95,32.26-36.41c3.72-1.4,7.32-3.17,10.85-5.02 c5.47-2.86,8.42-7.5,8.28-13.69c-0.07-3.24-0.55-6.55-1.41-9.68c-1.71-6.25-2.96-6.95-9.58-6.61c-6.5,0.33-12.23,2.91-17.89,5.9 c-6.21,3.28-12.32,7.12-18.96,9.16c-13.17,4.05-26.43,4.26-38.59-3.75c-9.04-5.95-15.9-13.92-20.47-23.72 c-1.37-2.95-2.42-6.17-2.91-9.38c-1.08-7,2.66-11.41,9.68-11.65c3.75-0.13,7.57-0.14,11.26,0.43c6.05,0.93,11.63-0.31,17.19-2.44 c5.25-2.01,10.43-4.47,15.87-5.7c16.3-3.68,22.03,0.83,28.59,10.45c1.19,1.75,2.29,3.56,3.51,5.29 c6.66,9.44,12.61,11.43,23.73,7.66c9.89-3.35,18.77-8.62,26.76-15.29c6.05-5.05,10.53-11.39,13.25-18.82 c2.86-7.79,0.92-14.22-6.4-17.97c-5.35-2.74-11.28-4.64-17.17-5.98c-22.34-5.09-44.87-3.09-67.34-0.97 c-16.35,1.54-32.69,3.25-49.01,5.12c-18.41,2.12-36.79,4.5-55.17,6.79c-1.39,0.17-2.82,0.38-4.12,0.85 c-5.5,1.97-6.46,3.4-6.09,9.37c0.17,2.8,0.68,5.59,1.02,8.38c0.94,7.91,2.31,15.73,1.08,23.83c-2.15,14.17-6.96,27.37-14.31,39.49 c-11.12,18.33-27.39,30.44-48.37,34.85c-18.8,3.96-37.83,6.96-57.15,7.65c-13.95,0.5-27.39,3.73-40.23,9.32 c-11.73,5.1-14.26,10.63-10.44,22.84c0.35,1.12,0.68,2.25,1.13,3.34c2.96,7.26,7.2,9.81,14.36,6.86 c6.42-2.64,12.32-6.65,18.23-10.4c8.71-5.53,17.04-11.69,25.89-16.99c9.35-5.6,19.56-7.61,30.49-5.34 c6.66,1.38,13.42,2.22,20.1,3.5c14.79,2.82,18.14,9.56,11.54,22.95c-0.31,0.63-0.65,1.25-1,1.86 c-7.84,13.68-16.34,26.83-27.77,37.94c-10.84,10.54-27.18,13.44-40.94,7.11c-6.18-2.85-10.69-7.52-15.35-12.18 c-4.5-4.5-8.96-4.59-15.23-0.68c-5.71,3.57-7.78,7.96-6.03,13.57c3.03,9.68,9.53,15.73,19.73,16.54 c11.22,0.89,22.51,1.06,33.77,1.39c12.68,0.37,23.26,4.85,31.3,14.96c3.8,4.78,8.13,9.13,11.92,13.92 c6.18,7.82,13.63,13.02,23.64,15.32c10.15,2.34,12.53,12.47,5.41,20.13c-5.04,5.41-11.03,9.56-18.08,11.89 c-27.65,9.11-61.57,4.8-80.59-23.1c-5.53-8.12-12.29-15.44-18.89-22.78c-4.37-4.85-10.8-5.25-15.98-1.85 c-5.66,3.71-7.25,8.51-4.44,15.29c1.51,3.65,3.42,7.28,5.83,10.39c4.01,5.19,8.23,10.31,12.97,14.84 c13.62,13.02,22.68,28.61,27.72,46.68c2.92,10.46,7.2,20.35,12.98,29.57c0.87,1.39,1.82,2.77,2.47,4.26 c3.5,7.95-0.7,14.73-9.44,15.35c-5.21,0.37-9.87-1.4-13.72-4.59c-4.87-4.03-9.42-8.47-13.87-12.97 c-6.44-6.51-12.56-13.35-19.02-19.85c-7.19-7.22-16.26-10.01-26.23-10.25c-8.83-0.21-14.1,4.83-14.35,13.7 c-0.05,1.87,0.05,3.77,0.34,5.62c2.06,13.33,8.81,23.55,20.34,30.64c18.98,11.67,35.5,26.28,50.13,42.98 c18.01,20.56,32.66,43.06,38.08,70.45c3.43,17.33,4.26,34.42-4.09,50.93c-2.94,5.83-4.89,12.19-6.94,18.43 c-3.67,11.2-1.87,21.57,4.42,31.61c7.97,12.73,19.24,21.1,32.95,26.36C528.74,1568.06,536.9,1566.78,546.76,1566.45z M1276.12,1002.99c6.04,1.14,9.64-1.38,13.49-2.89c4.14-1.63,8.18-3.54,12.41-4.88c2.79-0.88,5.64-0.38,7.5,2.41 c1.71,2.57,2,5.31,0.49,7.99c-1.38,2.45-3.21,4.64-4.6,7.08c-1.82,3.2-0.97,5.79,2.18,7.68c3.18,1.9,6.07,1.01,8.24-1.44 c1.99-2.25,3.47-4.98,5.03-7.59c2.45-4.09,5.08-8.03,9.89-9.58c6.53-2.11,12.34-5.2,17.84-9.5c7.81-6.1,18.27-0.91,19,8.95 c0.22,3.02,0.05,6.12-0.31,9.14c-1.9,15.97-13.36,30.02-27.37,33.35c-12.07,2.86-23.48,0.87-33.51-6.42 c-12.71-9.23-25.16-8.62-37.96-0.42c-9.79,6.27-18.52,13.67-25.6,22.93c-5.71,7.47-11.27,15.06-17.13,22.4 c-2.76,3.46-5.92,6.65-9.17,9.66c-6.56,6.06-13.36,11.86-19.96,17.89c-5.87,5.36-7.98,12.15-6.28,19.84 c1.06,4.79,2.45,9.58,4.36,14.09c8.48,20.01,12.16,40.87,11.9,62.53c-0.17,14.57-0.3,29.15-0.09,43.72 c0.27,18.6,3.74,36.29,14.47,52.15c6.48,9.58,10.8,20.32,13.26,31.68c1.34,6.19,2.51,12.44,3.34,18.72 c3.08,23.47,15.01,40.8,34.92,53.53c14.91,9.54,30.88,16.86,46.61,24.73c17.54,8.77,36.03,12.97,55.85,11.53 c10.76-0.78,21.62-0.06,32.44-0.11c11.78-0.05,20.93,4.39,26.7,15.04c1.56,2.88,3.5,5.57,5.39,8.25 c3.47,4.94,7.79,8.86,13.89,10.12c20.51,4.23,40.41,10.43,59.7,18.56c6.46,2.72,13.01,5.44,19,9.03 c21.85,13.08,38.91,31.03,51.28,53.21c3.23,5.79,7.49,7.94,13.53,7.96c1.88,0.01,3.76-0.1,5.63-0.28 c18.95-1.77,37.88-3.94,56.97-3.17c14.24,0.58,28.09,2.82,40.15,11.14c4.63,3.19,8.81,7.02,13.28,10.45 c2.22,1.71,4.47,3.51,6.99,4.69c3.25,1.53,5.32,0.34,6.48-3.04c1.82-5.32,0.51-9.27-4.61-11.63c-8.09-3.73-16.19-7.6-24.61-10.41 c-10.16-3.39-17.41-9.91-23.34-18.38c-4.77-6.82-8.11-14.33-10.03-22.38c-6.33-26.48-3.63-52.15,6.83-77.23 c9.24-22.15,24.25-38.83,45.44-50.06c12.03-6.38,23.98-12.92,35.94-19.44c8.78-4.78,15.3-11.58,18.63-21.17 c5.06-14.54,8.18-29.4,7.58-44.89c-0.08-2.08-0.19-4.39-1.14-6.12c-0.89-1.63-2.84-3.58-4.44-3.69c-1.66-0.11-3.91,1.47-5.08,2.95 c-1.23,1.56-1.55,3.87-2.17,5.88c-2.27,7.4-3.87,15.08-6.88,22.16c-5.66,13.32-14.99,22.75-30.41,23.8 c-9.36,0.63-18.76,1.01-28.14,1.11c-7.1,0.07-8.63-1.6-7.06-8.51c3.06-13.49,6.21-26.99,10.2-40.22 c3.77-12.54,10.64-23.76,20.06-32.76c11.48-10.96,20.71-23.69,30.68-35.85c5.56-6.77,10.04-14.29,12.58-22.69 c6.57-21.74,7.59-43.87,3.92-66.25c-0.42-2.54-0.56-5.81-3.86-5.81c-2.54,0-5.89,0.78-7.47,2.5c-5.72,6.23-9.15,13.64-8.26,22.43 c0.31,3.03,0.87,6.05,1.42,9.05c1.97,10.68-0.46,20.16-8.16,27.89c-4.3,4.32-8.93,8.36-13.78,12.05 c-10.4,7.93-19.44,16.97-25.89,28.47c-1.59,2.84-3.56,5.58-5.81,7.93c-4.3,4.49-10.79,5.82-15.38,2.47 c-2.83-2.06-5.31-5.5-6.44-8.84c-5.98-17.71-9.69-35.81-7.26-54.69c1.7-13.24,8.57-22.66,20.87-27.83 c5.17-2.17,10.6-3.75,15.98-5.38c10.74-3.25,20.4-8.37,28.5-16.21c7.15-6.92,11.73-15.21,12.81-25.23 c0.79-7.35-1.52-13.33-7.63-17.82c-7.3-5.36-15.47-8.69-24.06-11.36c-22.38-6.97-44.89-13.6-66.98-21.43 c-17.66-6.26-30.99-17.57-34.89-37.23c-0.36-1.83-0.83-3.76-1.79-5.32c-1.23-2.02-3-3.71-4.72-5.76c-1.58,1.46-2.67,2.1-3.24,3.05 c-4.1,6.94-10.33,11.58-17.17,15.32c-13.94,7.62-28.21,8.39-42.28,0.41c-6.11-3.47-11.65-7.94-17.7-11.53 c-5.2-3.09-10.52-6.31-16.21-8.19c-12.52-4.12-20.2,3.05-18.21,16.18c1.04,6.88,4.76,12.2,9.49,16.9 c6.67,6.63,13.57,13.02,20.28,19.61c6.39,6.27,9.53,13.99,8.95,22.89c-0.35,5.35-0.96,10.82-2.49,15.93 c-5.14,17.13-16.55,30.02-30.39,40.46c-6.2,4.68-14.06,7.52-21.57,9.97c-7.32,2.38-12.54-2.1-12.52-9.83 c0.01-2.71,0.94-5.53,1.96-8.09c1.39-3.48,3.32-6.73,4.95-10.12c4.91-10.21,4.28-20-2.38-29.28c-1.51-2.1-2.9-4.29-4.51-6.31 c-4.88-6.13-5.02-12.86-2.86-20c1.49-4.93,4.55-8.74,8.37-11.96c5.66-4.77,7.57-10.88,7.82-18.09c0.43-12.2-2.89-23.11-9.37-33.35 c-14-22.14-33.75-38.34-54.74-53.21c-8.8-6.24-17.98-11.96-27.15-17.65c-5.76-3.57-11.74-6.84-17.79-9.9 c-5.85-2.96-12.11-5.15-17.86-8.29c-12.01-6.56-24.56-11.89-37.71-15.41c-14.93-4-29.57-3.44-43.63,4.43 c-11.8,6.61-22.15,14.94-32.24,23.8c-16.81,14.76-28.11,32.71-32.22,54.81c-2.1,11.31-3.98,22.69-5.14,34.12 c-0.85,8.38-0.63,16.9-0.41,25.34c0.13,4.99,2.63,6.38,6.94,3.92c4.05-2.31,8.16-4.89,11.36-8.2c6.61-6.83,14.14-12.33,22.06-17.43 c3.75-2.41,7.41-4.99,10.89-7.77c4.52-3.61,7.62-8.31,9.1-13.94c2.57-9.74,1.61-11.82-7.36-16.59c-0.42-0.22-0.82-0.47-1.23-0.69 c-6.96-3.86-8.49-7.12-4.04-13.5c6.02-8.62,12.89-16.72,19.98-24.51c3.84-4.21,9.9-4.44,14.32-2c12.64,6.95,15.81,23.98,6.53,34.98 c-3.03,3.59-6.14,7.13-8.83,10.97C1277.82,997.42,1277.31,999.98,1276.12,1002.99z M1169.74,904.63c0.76,0.13,1.51,0.26,2.27,0.39 c1.2-1.85,2.56-3.62,3.58-5.56c3.29-6.23,6.38-12.57,9.68-18.79c8.17-15.41,20.35-26.31,36.96-31.85 c12.33-4.12,25.05-6.69,38.08-5.68c22.47,1.74,45,1.91,67.45,4.75c21.41,2.71,43.08,2.37,64.68-0.73 c30.35-4.36,55.95-17.51,76.19-40.24c13.74-15.43,26.2-32,39.29-48.01c6.84-8.36,13.4-17,20.83-24.82 c15.71-16.53,31.89-32.61,47.91-48.85c8.04-8.15,8.64-12.44,2.76-22.31c-1.07-1.8-2.4-3.47-3.76-5.09 c-4.69-5.58-9.24-11.29-14.23-16.59c-6.85-7.28-8.46-16.15-5.77-24.92c2.65-8.64,7.35-16.71,11.64-24.77 c2.74-5.15,7.67-6.52,13.34-5.49c12.66,2.31,18.26,8.34,19.76,21.17c1.92,16.51,0.53,32.84-2.32,49.11 c-0.29,1.69-0.24,3.43-0.38,5.49c1.43-0.27,2.21-0.21,2.73-0.55c1.17-0.77,2.33-1.61,3.27-2.63 c12.26-13.36,23.88-27.26,33.07-42.93c7.73-13.18,14.7-26.8,17.9-41.93c1.8-8.49,3.33-17.06,4.63-25.64 c0.88-5.79,1.45-11.67,1.61-17.53c0.17-6.05-2.37-7.58-7.97-5.12c-2.11,0.93-4.17,2.25-5.87,3.81 c-18.43,16.89-39.94,28.87-62.63,38.78c-6.79,2.96-14.25,4.72-21.58,6.02c-23.81,4.2-47.42,9.08-70.4,16.73 c-26.92,8.96-53.8,18.07-80.86,26.61c-14.52,4.58-29.49,7.75-44.06,12.2c-17.02,5.2-32.74,12.96-45.31,26.06 c-6.45,6.72-11.47,14.32-14.09,23.29c-2.56,8.79-4.67,17.71-7.25,26.49c-1.32,4.5-0.53,8.31,2.29,11.88 c1.17,1.48,2.36,2.93,3.45,4.46c12.45,17.61,10.47,37.91-0.07,53.4c-4.92,7.24-19.32,6.5-22.01-2.33 c-1.89-6.21-5.62-11.31-9.64-16.26c-3.89-4.78-5.38-10.29-4.99-16.44c0.5-8.07,3.54-14.85,8.92-20.93 c3.51-3.97,7.77-8.41,8.76-13.23c1.77-8.62,1.73-17.7,1.63-26.58c-0.06-5.32-3.19-8.13-8.41-8.87c-7.94-1.13-15.64-0.34-21.7,5.6 c-6.87,6.74-13.15,14.08-20.2,20.61c-7.13,6.61-9.19,14.84-9.87,23.96c-0.58,7.76-4.46,13.9-10.99,17.97 c-4.14,2.58-8.72,4.57-13.27,6.37c-5.01,1.98-10.2,3.51-15.35,5.13c-8.93,2.8-16.08,7.62-19.71,16.68 c-0.51,1.26-1.4,2.37-2.19,3.66c-1.83,0-3.46-0.04-5.09,0.01c-6.53,0.18-8.69,2.26-9.18,8.91c-0.1,1.4,0.03,2.82-0.03,4.23 c-0.66,15.12,1.33,29.98,3.8,44.85c3.84,23.17,7.32,46.4,11,69.59C1168.4,900.34,1169.17,902.47,1169.74,904.63z M916.34,443.52 c-0.48-5.4-3.95-9.35-7.34-13.14c-7.05-7.89-14.39-15.51-21.63-23.22c-15-15.98-32.06-29.68-48.72-43.82 c-14.5-12.31-28.85-24.8-44.61-35.55c-7.96-5.43-15.68-11.2-23.56-16.75c-2.88-2.03-5.76-4.1-8.84-5.78 c-10.45-5.7-21.51,0.58-21.9,12.46c-0.26,7.99-0.15,15.98-0.24,23.98c-0.17,13.72,1.29,27.18,5.63,40.28 c1.7,5.12,2.96,10.38,4.49,15.56c7.67,26.01,17.76,50.97,32.38,73.94c11.61,18.23,25.19,34.5,44.44,45.34 c12.98,7.31,25.84,7.68,38.86,0.52c4.52-2.49,8.79-5.44,13.29-7.98c14.4-8.13,29.47-8.84,44.82-3.31 c7.71,2.78,8.85,7.08,4.56,14.25c-6.3,10.51-15.61,16.57-27.56,18.95c-3.17,0.63-6.42,1.59-9.25,3.12 c-11.91,6.43-12.14,10.76-2.07,19.6c14.13,12.41,28.09,25.01,41.92,37.75c12.72,11.73,23.53,25.15,30.98,40.76 c9.74,20.43,23.54,36.61,43.95,46.88c10.18,5.12,14.1,13.96,13.91,24.95c-0.04,2.11-0.21,4.22-0.42,6.33 c-1.03,10.61-1.31,20.81,4.76,30.63c4.44,7.18-0.59,15.33-9.06,15.45c-15.02,0.23-29.43-2.48-42.18-11.21 c-7.96-5.45-12.43-12.84-12.15-22.53c0.2-6.79,0.77-13.62,1.9-20.31c2.12-12.58-0.99-23.72-8.08-34.02 c-4.28-6.23-9.61-6.18-14.01,0.14c-0.67,0.96-1.15,2.06-1.82,3.01c-7.28,10.31-13.11,21.68-23.97,29.22 c-2.97,2.06-5.04,6.21-6.23,9.83c-1.44,4.38-1.68,9.19-2.11,13.84c-0.81,8.65-1.05,17.36-2.13,25.98 c-1.75,13.86-10.8,22.2-24.68,23.4c-3.75,0.32-7.49,0.74-11.24,0.93c-11.55,0.59-22.82,2.32-33.71,6.56 c-3.62,1.41-7.75,2.02-11.66,2.02c-5.45,0.01-8.49-3.55-8.72-9.02c-0.22-5.22,1.53-10.01,5.13-13.47 c5.71-5.5,11.73-10.82,18.22-15.36c7.29-5.11,15.27-9.23,22.9-13.85c2.86-1.73,5.97-3.35,7.13-8.47 c-5.21,1.43-9.36,2.94-13.64,3.69c-21.45,3.74-42.79,5.35-63.99-2.11c-11.41-4.01-23-3.61-34.35,1.39 c-9.25,4.08-18.95,6.82-29.05,8.14c-2.37,0.31-4.62,1.58-7.95,2.78c3.16,4.03,5.38,7.33,8.06,10.2 c18.62,19.93,37.1,39.99,56.09,59.56c12.02,12.38,26.54,20.69,43.89,23.62c14.29,2.42,28.66,1.82,42.9,0.71 c24.57-1.91,49.05-4.95,73.59-7.29c13.62-1.3,27.23-0.57,40.75,1.57c15.49,2.45,29.67,8.58,43.59,15.49 c7.14,3.55,9.05,3.01,13.31-3.64c9.66-15.08,17.73-30.96,23.42-47.99c6.45-19.31,8.89-39.21,10.22-59.5 c1.8-27.51-5.49-52.07-20.79-74.47c-17.22-25.21-35.29-49.87-48.79-77.42c-0.52-1.05-1.14-2.06-1.81-3.02 c-7.65-11.08-13.19-23.24-18.62-35.51c-6.17-13.95-12.45-27.89-19.55-41.38c-3.56-6.75-8.72-12.77-13.78-18.59 c-4.07-4.68-9.68-7.15-15.98-8.21c-7.44-1.24-14.42,0.06-21.4,2.4c-6.21,2.08-12.38,4.53-18.78,5.7c-9.67,1.78-19.47,1-27.89-4.49 c-14.84-9.69-28.03-21.38-38.97-35.42c-2.15-2.76-3.89-5.86-5.61-8.92c-2.03-3.61-1.42-7.15,0.53-10.71 c2.71-4.95,7.47-6.3,12.36-7.05c7.42-1.13,14.89-2.02,22.38-2.61c15.22-1.2,27.83,2.99,35.45,17.53c1.59,3.04,4.05,5.82,6.65,8.12 C905.51,448.9,909.83,448.64,916.34,443.52z M1316.38,406.97c-1.95-1.69-3.35-3.2-5.02-4.31c-13.35-8.91-17.76-21.82-16.51-37.13 c0.79-9.65,6.31-17.23,12.47-23.99c10.44-11.46,21.52-22.33,32.39-33.4c1.3-1.32,2.81-2.55,4.44-3.4 c7.15-3.72,13.35-0.93,15.98,6.61c4.91,14.09,5.7,28.45,3.46,43.09c-0.83,5.46-1.44,10.95-2.3,17.6c2.99-1.61,4.86-2.46,6.56-3.57 c33.3-21.64,67.8-41.2,102.94-59.68c3.86-2.03,7.34-4.79,11.66-7.65c-2.41-4.57-3.95-8.84-6.59-12.27 c-11.42-14.83-26.95-24.33-44.34-29.85c-10.56-3.35-22.18-4.25-33.37-4.56c-32.12-0.9-62.84,6.09-92.56,18.09 c-56.77,22.91-105.44,57.36-146.41,102.72c-4.68,5.19-8.82,11.06-12.2,17.18c-5.71,10.34-8,21.58-5.3,33.35 c1.96,8.57,5.57,16.44,11.44,23.13c4.19,4.77,8.66,9.3,12.59,14.26c6.05,7.64,7.08,16.1,3.17,25.16 c-2.46,5.7-5.89,10.56-10.4,14.88c-11.34,10.85-21.53,22.48-22.65,39.28c-0.05,0.69-0.33,1.37-0.55,2.03 c-2.49,7.69-6.74,9.73-14.58,7.64c-9.27-2.46-15.05-8.91-20.5-16.24c-12.22-16.44-14.78-34.71-10.65-54.19 c2.15-10.12,7.59-18.65,15.01-25.85c4.95-4.81,9.22-10.13,11.57-16.63c1.09-3.01,1.59-6.38,1.6-9.59c0.01-5.02-1.45-6.12-6.27-6.53 c-5.39-0.47-9.43,1.5-12.87,5.68c-14.81,18.04-27.67,37.38-38.97,57.77c-1.24,2.23-2.01,4.75-2.84,7.18 c-4.4,12.92-4.84,26.3-4.2,39.72c1.28,26.98,8.05,52.34,23.81,74.66c3.74,5.3,8.24,10.32,13.25,14.42 c8.02,6.55,17.5,9.29,27.7,5.67c5.92-2.1,11.74-4.76,17.2-7.87c16.13-9.19,28.18-22.82,37.69-38.31 c11.89-19.37,23.21-39.09,30.47-60.95c5.54-16.68,6.26-32.98,1.58-49.79c-1.15-4.12-2.96-7.08-6.76-9.24 c-5.54-3.16-10.78-7.02-13.41-13.1c-7.83-18.06-8.64-36.33-0.86-54.68c1.59-3.76,4.38-6.03,8.52-6.47 c11.19-1.17,20.87,1.85,25.59,11.74c4.38,9.18,7.67,18.74,8.73,28.85c0.91,8.61,2.32,17.49,1.1,25.89 c-1.12,7.73-0.05,14.32,2.89,21.1c4,9.23,6.5,9.87,13.14,2.74c20.53-22.02,41.62-43.45,64.88-62.64 C1310.97,413.18,1313.3,410.2,1316.38,406.97z M676.69,694.31c4.21-4.41,4.4-8.69,5.02-12.8c1.96-13,3.55-26.14,9.62-38.04 c3.29-6.45,6.9-12.88,11.28-18.61c6.46-8.43,15.14-7.31,20.17,2c0.56,1.03,1.04,2.1,1.54,3.17c3.33,7.15,8.05,13.22,14.14,18.22 c6.18,5.07,12.18,10.38,18.6,15.11c13,9.58,20.7,21.58,19.08,38.35c-0.48,4.97,2.12,7.91,6.56,9.6c14.37,5.46,29.09,7.45,44.21,4 c4.24-0.97,8.52-2.57,11.49-7.29c-2.49-1.96-4.84-3.78-7.16-5.64c-4.39-3.53-9.02-6.82-13.04-10.73c-2.45-2.38-4.3-5.56-5.77-8.69 c-1.84-3.9-1.26-7.92,1.77-11.13c2.97-3.14,6.83-4.27,10.94-2.88c2.59,0.87,5.02,2.38,7.34,3.9c9.97,6.53,19.27,14.2,31.87,15.55 c18.24,1.95,33.44-3.15,44.45-18.34c5.01-6.9,5.37-14.4,1.42-21.94c-1.4-2.69-3.02-5.37-5.03-7.61 c-8.99-9.99-18.7-19.13-30.61-25.69c-12.34-6.8-24.68-13.61-36.79-20.8c-11.4-6.77-23.49-11.82-36.2-15.29 c-21.93-5.99-44.02-11.39-65.94-17.43c-27.13-7.47-53.94-15.86-80.31-25.85c-14.64-5.54-28.43-12.13-41.31-20.85 c-1.94-1.32-4-2.46-5.93-3.8c-13.78-9.57-25.74-21.1-36.49-33.94c-2.82-3.37-5.78-6.64-8.65-9.94c-5.85,2.83-9.65,6.64-10.89,12.2 c-2.59,11.58-2.96,23.49-1.05,35.05c2.66,16.12,8.61,31.32,19.07,44.17c10.52,12.93,21.24,25.73,32.47,38.03 c14.91,16.33,29.46,32.9,41.86,51.25c8.67,12.85,17.2,25.8,25.88,38.64C672.08,688.9,674.25,691.26,676.69,694.31z M184.97,1002.19 c1.96-2.87,3.48-4.87,4.76-7.02c3.36-5.64,6.31-11.56,9.96-17c12.06-17.97,29.21-29.73,48.71-38.1 c27.5-11.8,56.35-19.05,85.78-24.09c19.18-3.29,38.47-6.04,57.5-10.03c15.58-3.26,30.82-8.08,46.25-12.07 c23.52-6.08,44.5-17.25,63.95-31.57c4.42-3.26,5.89-7.36,4.2-12.3c-2.12-6.2-4.38-12.4-7.27-18.26 c-4.56-9.26-9.87-18.16-14.52-27.38c-5.58-11.05-13.44-20.29-21.71-29.34c-4.92-5.39-10.41-6.08-16.5-3.37 c-5.55,2.48-11.03,5.25-16.13,8.54c-17.47,11.28-36.33,19.69-55.93,26.23c-19.04,6.35-38.67,9.72-58.9,6.49 c-14.96-2.38-27.75-8.42-36.69-21.24c-1.42-2.03-3.4-3.67-5.31-5.7c-2.25,1.44-4.41,2.22-5.66,3.75c-2.5,3.07-4.81,6.39-6.65,9.89 c-6.54,12.45-14.51,23.61-26.7,31.21c-0.4,0.25-0.76,0.55-1.12,0.86c-3.81,3.33-3.99,5.06-0.7,8.79c1.4,1.58,3.01,2.97,4.54,4.43 c16.56,15.86,15.55,46.76,0.85,63.92c-4.05,4.72-9.46,6.73-15.6,6.99c-8.85,0.37-17.22-1.71-25.34-5 c-11.86-4.82-20.39-0.88-24.8,11.38c-3.21,8.93-4.68,18.19-5.11,27.6c-0.58,12.81,0.92,25.35,6.43,37.11 C175.87,992.39,178.93,997.64,184.97,1002.19z M1669.13,849.9c2.34-2.48,4.4-4.41,6.16-6.57c17.46-21.54,39.09-38.44,60.76-55.4 c10.86-8.5,20.75-18.3,30.73-27.87c5.98-5.74,10.21-12.86,12.89-20.78c5.03-14.88,10.47-29.65,14.85-44.72 c3.93-13.56,5.82-27.55,4.79-41.78c-0.36-5-1.15-9.72-5.26-13.33c-21.36-18.76-46.29-25.76-73.94-20.43 c-16.05,3.1-31.45,9.02-45.27,18.36c-20.11,13.59-38.63,29.1-55.68,46.3c-21.55,21.75-39.33,46.67-58.28,70.59 c-1.22,1.54-1.95,3.47-3.58,6.46c6.45-0.66,11.47-1.04,16.46-1.71c18.28-2.45,33.41,3.67,45.17,17.46 c6.05,7.1,11.27,15,16.18,22.96c6.28,10.18,11.72,20.87,17.79,31.18C1657.06,837.71,1661.79,844.44,1669.13,849.9z M1167.76,709.81 c1.25-0.23,2.37-0.42,3.48-0.65c8.24-1.71,16.41-3.95,24.74-5.02c9.33-1.19,16.26-5.42,21.23-13.22c0.76-1.19,1.75-2.22,2.51-3.4 c8.4-12.9,19.55-21.91,34.72-25.92c4.41-1.17,8.85-3.46,12.42-6.32c9.35-7.5,18.19-15.61,25.19-25.5 c3.39-4.79,7.15-9.31,10.61-14.05c2-2.75,4.37-5.45,3.94-9.24c-0.76-0.18-1.2-0.42-1.6-0.35c-11.38,1.85-22.53,4.42-32.95,9.64 c-5.06,2.53-10.42,4.31-16.27,3.78c-7.58-0.69-9.93-3.29-9.6-10.82c0.07-1.63,0.2-3.3,0.61-4.88c4.62-17.95,14.31-33.13,26.6-46.6 c6.64-7.27,15.57-10.42,25.61-8.98c5.33,0.77,10.76,1.44,15.89,2.99c11.9,3.59,24.04,4.27,36.26,3.45 c4.82-0.32,9.87-1.32,14.27-3.26c34.78-15.3,65.47-36.74,92.7-63.1c7.06-6.84,14.07-14.1,19.42-22.27 c11.46-17.52,21.45-35.93,24.59-57.13c3.38-22.81-3.12-45.97-24.31-58.72c-3.01-1.81-6.28-3.2-9.34-4.94 c-6.28-3.58-12.58-3.27-18.9-0.28c-30.09,14.21-58.28,31.28-83.14,53.69c-13.16,11.87-22.58,26.33-31.49,41.28 c-0.8,1.35-0.37,3.42-0.51,5.16c1.72-0.07,3.56,0.26,5.12-0.27c5.98-2.03,11.75-4.76,17.82-6.45c24.08-6.69,47.37-4.01,69.77,6.82 c7.53,3.64,9.27,10.61,4.5,17.5c-1.06,1.53-2.36,2.96-3.76,4.18c-7.82,6.83-14.65,14.52-20.96,22.78 c-6.8,8.9-15.92,14.41-27.17,16.17c-9.9,1.55-19.65,0.82-29.35-1.44c-9.95-2.32-17.91-7.91-25.04-15 c-4.93-4.91-8.62-5.21-14.43-1.67c-1,0.61-2.07,1.22-2.85,2.07c-5.38,5.87-12.52,9.01-19.34,12.66 c-20.94,11.18-37.05,27.13-47.64,48.45c-3.44,6.93-6.81,13.94-9.68,21.12c-8.67,21.67-19.83,42.02-31.97,61.89 c-13.03,21.31-23.75,43.72-32.35,67.16C1166.14,703.76,1165.05,706.49,1167.76,709.81z M1799.13,1095.85 c-3.37-9.06-3.58-13.57-0.77-20.56c8.04-20.01,23.28-32.38,43.57-37.72c12.38-3.26,25.4-4.56,38.23-5.46 c9.75-0.68,19.65,0.6,29.48,1.14c2.56,0.14,5.1,1.11,7.63,1.06c1.92-0.04,4.8-0.58,5.45-1.84c0.69-1.33-0.4-3.96-1.35-5.67 c-1.11-2.02-2.88-3.68-4.41-5.45c-9.45-10.86-21.43-18.28-34.26-24.27c-4.54-2.12-9.86-3.14-14.9-3.48 c-8.19-0.56-16.45-0.34-24.67-0.13c-17.26,0.44-32.84-4.55-47.18-13.94c-5.7-3.73-11.42-7.44-17.25-10.96 c-2.79-1.69-5.73-3.47-8.84-4.25c-18.19-4.56-36.39-9.11-54.71-13.12c-12.96-2.84-25.4-6.64-36.45-14.22 c-2.12-1.46-4.33-2.87-6.68-3.9c-5.53-2.43-9.41-1.51-12.76,3.62c-2.28,3.49-4.11,7.41-5.45,11.37 c-5.57,16.46-5.39,33.23-2.06,50.1c4.58,23.23,18.72,37.76,40.98,44.79c9.39,2.96,18.98,5.32,28.26,8.57 c12.59,4.42,25.27,8.8,37.36,14.38c12.86,5.94,21.15,16.38,23.32,30.69c1.29,8.51,5.15,15.36,10.54,21.84 c2.93,3.52,5.21,7.78,6.9,12.06c3.89,9.86,4.05,20.15,2.23,30.53c-0.25,1.41-0.03,2.89-0.03,5.21c2.1-1.5,3.55-2.25,4.64-3.35 c9.44-9.6,20.85-15.94,33.51-20.08c13.15-4.29,26.32-8.53,39.6-12.38c16.08-4.67,31.57-10.61,45.66-19.78 c7.96-5.18,14.72-11.7,20.13-19.5c3.33-4.79,2.64-7-2.76-9.01c-4.38-1.63-8.86-3.33-13.44-4.02c-12.27-1.87-24.59-3.62-36.96-4.68 c-18.71-1.6-37.05,0.72-54.65,7.45c-9.63,3.68-19.06,7.88-28.62,11.76C1805.47,1093.83,1802.41,1094.73,1799.13,1095.85z M1352.64,598.42c0.4,0.48,0.79,0.97,1.19,1.45c6.62-0.46,12.38-3.68,18.41-6.07c8.05-3.19,15.97-6.81,24.22-9.36 c22.01-6.81,45.02-9.1,67.42-14.16c18.28-4.12,36.66-8.05,54.6-13.36c23.9-7.08,46.64-17.15,67.64-30.82 c0.98-0.64,2-1.24,3.04-1.77c12.02-6.12,22.78-13.98,32.61-23.21c9.75-9.17,19.75-18.08,29.45-27.3c2.34-2.22,4.23-5.07,5.77-7.93 c2.43-4.49,1.52-6.17-3.35-7.59c-8.76-2.55-16.48,0-22.78,5.9c-5.45,5.1-9.97,11.19-14.99,16.77c-4.23,4.71-8.29,9.62-12.94,13.89 c-5.54,5.08-12.38,7.96-19.98,7.34c-11.92-0.98-23.81-2.43-35.68-3.93c-4.4-0.55-6.02-2.55-6.51-7.01 c-0.6-5.5-0.13-10.99,3.31-15.5c6.54-8.57,12.89-17.39,20.3-25.18c11.25-11.83,24.92-16.22,41.03-10.44 c6.49,2.33,13.37,2.79,20.18,1.77c6.71-1,13.35-2.48,20.03-3.73c2.07-0.39,4.18-0.61,6.24-1.07c3.1-0.7,4.62-2.53,4.91-5.91 c0.71-8.4,1.9-16.76,2.72-25.15c1.71-17.52,7.91-33.23,18.63-47.19c2.43-3.17,4.87-6.36,6.92-9.77c3.28-5.46,2.46-8.84-2.75-12.65 c-2.27-1.66-4.8-2.98-7.04-4.68c-16.83-12.77-36.01-20.04-56.62-23.54c-7.3-1.24-14.87-1.5-22.03-0.14 c-1.89,4.47,1.02,6.76,2.8,9.36c3.16,4.64,6.71,9.04,9.64,13.82c7.01,11.44,8.4,24.08,8.31,37.27c-0.07,8.97-1.91,17.08-5.84,25.05 c-4.39,8.9-11.19,15.69-18.61,21.8c-2.82,2.32-7.21,3.42-11,3.75c-6.55,0.58-9.48-2.44-9.68-9.13c-0.14-4.45,0.25-8.92,0.49-13.38 c0.6-10.86-1.86-20.49-10.59-27.85c-2.31-1.95-4.34-4.31-6.22-6.7c-4.2-5.33-4.83-11.1-1.35-17.05c1.89-3.24,4.29-6.21,6-9.54 c2.76-5.4,5.43-10.89,7.58-16.55c1.67-4.4-0.09-6.67-4.91-6.86c-9.61-0.38-18.31,2.15-24.42,10c-7.2,9.24-12.28,19.39-11.94,31.62 c0.28,10.34,0.18,20.68,0.23,31.02c0.14,27.23-5.26,53.21-18.24,77.3c-4.11,7.62-8.98,14.87-13.87,22.04 c-15.7,23.05-35.63,41.77-59.27,56.45c-17.95,11.15-36.37,21.56-54.26,32.81c-7.71,4.85-14.77,10.8-21.81,16.62 C1356.84,592.23,1354.94,595.56,1352.64,598.42z M1546.36,811.76c0.01-0.09,0.02-0.18,0.03-0.27c6.08,0.5,12.17,0.82,18.22,1.55 c7.69,0.92,14.29,4.12,19.75,9.81c8.95,9.32,13.7,20.83,16.36,33.03c3.26,14.92,6.26,29.79,12.9,43.72 c2.95,6.19,1.11,9.2-5.63,10.52c-10.7,2.1-21.44,1.8-32.23,0.45c-12.11-1.51-20.91-7.86-27.31-17.86 c-2.27-3.55-4.24-7.32-5.99-11.15c-2.53-5.55-4.77-11.23-7.08-16.88c-3.77-9.19-8.58-17.73-15.25-25.18 c-3.98-4.45-8.85-6.89-14.8-7.04c-3.28-0.08-6.6-0.16-9.86,0.15c-9.17,0.87-17.45,3.78-23.31,11.41 c-4.14,5.39-8.19,10.86-12.19,16.36c-4.83,6.64-9.14,13.71-14.43,19.95c-8.48,10-15.05,21.09-19.45,33.27 c-2.35,6.51-2.9,13.71-3.89,20.65c-0.59,4.18,1.06,7.84,4.31,10.67c8.16,7.09,16.57,13.77,26.11,19.07 c8.38,4.65,16.32,10.1,24.31,15.43c4.1,2.73,7.85,5.97,11.78,8.95c6.86,5.2,14.8,8.11,22.98,10.3c7.37,1.97,11.53-0.67,13.73-8.01 c0.47-1.57,0.91-3.16,1.45-4.7c3.99-11.4,10.71-13.83,21.16-7.59c2.42,1.44,4.68,3.13,7.05,4.67c2.36,1.53,4.68,3.16,7.16,4.48 c8.43,4.47,13.4,3.39,20.08-3.4c4.59-4.67,9.43-9.16,14.57-13.19c16.52-12.96,30.54-27.95,38.6-47.63 c4.26-10.4,7.59-21.17,11.47-31.73c1.75-4.78,0.88-9.07-1.14-13.57c-6.35-14.12-12.29-28.43-18.7-42.53 c-3.59-7.89-7.53-15.66-11.78-23.21c-6.27-11.14-15.44-19.98-26.63-25.51c-19.29-9.53-37.48-3.95-54.43,7.21 c-3.81,2.51-5.15,6.59-4.57,11.16c0.55,4.29,2.46,6.28,6.8,6.6C1539.77,811.96,1543.07,811.76,1546.36,811.76z M1012.32,1774.29 c3.67,3.88,7.07,7.33,10.32,10.93c5.33,5.92,11.15,11.52,15.67,18.01c4.75,6.82,2.46,12.12-5.58,14.35 c-12.45,3.46-24.29,2.05-34.55-6.4c-4.52-3.72-8.92-7.71-12.79-12.09c-8.95-10.13-19.89-14.24-33.31-13.07 c-15.6,1.37-26.17,9.7-32.83,23.2c-3.77,7.65-3.22,15.64,1.93,22.72c7.7,10.58,18.69,16.12,31.34,16.12 c9.94,0,20.02-2.16,29.78-4.48c17.99-4.29,35.69-9.85,53.71-14.03c13.79-3.2,27.85-3.46,41.98-1.07 c12.02,2.03,24.19,3.14,36.28,4.71c15.23,1.98,29.88,5.58,43.37,13.46c6.85,4.01,14.34,6.96,21.6,10.24 c6.81,3.08,14.04,3.63,21.39,2.98c13.9-1.23,23.75-11.59,24.37-25.53c0.68-15.25-6.23-26.59-18.14-35.37 c-10.39-7.65-20.7-15.42-31.23-22.88c-3.99-2.82-8.28-5.42-12.8-7.24c-7.2-2.89-13.42-0.97-18.18,5.1 c-2.6,3.32-4.59,7.11-7.11,10.49c-17.47,23.47-39.48,36.34-69.85,30.02c-9.38-1.95-12.05-6.76-7.32-15 c4.75-8.29,10.9-15.3,19.96-19.2c9.26-3.98,18.64-7.71,27.73-12.06c6.73-3.22,13.38-6.8,19.49-11.04 c7.2-4.99,11.63-12.23,12.97-21.03c0.67-4.39,1.35-8.87,1.2-13.28c-0.48-13.91,3.3-26.33,11.28-37.75 c4.42-6.33,8.46-13.04,11.79-20c10.44-21.86,3.05-56.71-15.05-72.86c-0.35-0.31-0.7-0.62-1.08-0.91 c-7.24-5.62-14.33-11.44-21.75-16.81c-10.22-7.4-21.97-10.97-34.42-10.5c-18.66,0.71-34.87,8.68-49.95,19.13 c-1.95,1.35-4.58,2.83-3.31,6.48c1.47,0.27,3.04,0.62,4.62,0.83c24.62,3.22,47.31,11.84,68.01,25.36 c6.6,4.31,12.84,9.66,17.97,15.63c8.93,10.39,9.63,23.19,4.81,35.2c-8.66,21.58-20.09,41.9-31.81,61.99 c-1.29,2.21-3.03,4.17-4.67,6.16c-9.55,11.67-21.9,19.08-36.28,23.07c-11.29,3.13-22.75,5.65-34.09,8.61 C1022.63,1767.84,1017.3,1769.04,1012.32,1774.29z M828.1,554.42c-0.78-1.33-0.98-2.09-1.46-2.42c-3.29-2.26-6.59-4.51-9.97-6.62 c-18.51-11.53-34.71-25.6-48.42-42.66c-12.31-15.32-22.05-32.17-30.47-49.79c-23.87-49.95-42.19-101.46-43.52-157.67 c-0.16-6.72-0.9-13.55-4.45-19.44c-11.95-0.72-16.1,3.52-14.74,14.71c0.11,0.93,0.33,1.85,0.5,2.78c2.89,15.76,5,31.61,3.13,47.66 c-1.11,9.55-2.38,19.11-4.24,28.54c-1.37,6.93-5.83,9.9-12.88,9.02c-3.37-0.42-6.98-1.62-9.76-3.53 c-12.11-8.29-22.87-18.04-30.6-30.74c-2.88-4.73-4.44-9.82-4.4-15.37c0.14-16.42,7.36-29.37,19.9-39.46 c2.44-1.97,5.81-2.95,8.9-3.91c3.57-1.11,7.31-1.62,10.95-2.52c3.33-0.83,5.34-2.8,4.97-6.81c-0.91-0.5-1.87-1.42-2.92-1.54 c-6.29-0.73-12.59-1.76-18.9-1.81c-18.52-0.14-36.34,4.05-53.52,10.56c-11.4,4.31-22.37,9.75-33.52,14.7 c-8.95,3.97-9.27,5.85-1.36,11.44c9.88,6.97,14.23,16.7,14.41,28.36c0.11,7.26-0.57,14.55-1.09,21.81 c-0.95,13.3,0.09,26.3,5.31,38.73c6.49,15.45,23.47,23.55,39.5,18.58c5.36-1.66,10.51-4,15.7-6.18 c24.18-10.13,53.84-3.74,69.73,19.05c7.03,10.08,12.65,20.9,15.6,32.93c0.72,2.94,1.23,6.02,1.26,9.04 c0.08,8.42-4.13,12.08-12.51,10.81c-2.96-0.45-5.82-1.73-8.67-2.78c-11-4.06-21.81-9-33.81-9.03c-6.54-0.02-13.19,0.24-19.59,1.45 c-6.11,1.15-7.16,4.9-3.31,9.68c2.19,2.72,4.82,5.17,7.56,7.36c25.07,19.98,52.67,35.17,83.8,43.43 c25.83,6.85,51.7,13.55,77.65,19.89C810.76,554.59,818.94,555.97,828.1,554.42z M1217.64,224.74c1.83-11.33-3.16-23.14-5.15-35.36 c-0.47-2.89-2.29-5.61-3.72-8.29c-6.94-13.03-18.4-21.05-31.04-27.67c-6.2-3.25-12.94-4.13-19.85-3.51 c-8.5,0.76-13.84,5.9-14.74,14.36c-0.32,3.01-0.33,6.15,0.16,9.13c0.99,6.02,4.25,10.44,10.45,11.95c3.17,0.77,6.43,1.32,9.68,1.52 c11.22,0.71,19.16,6.32,23.47,16.42c7.5,17.57,6.39,34.84-3.62,51.23c-9.69,15.87-23.9,27.66-37.19,40.24 c-6.19,5.86-14.14,7.89-22.04-0.99c-9.87-11.1-21.29-20.45-33.9-28.47c-7.1-4.52-13.5-10.18-20-15.58 c-5.59-4.64-9.6-10.47-10.15-17.92c-1.08-14.71,2.89-28.02,12.79-39.07c8.62-9.62,19.45-13.6,32.39-10.62 c2.28,0.53,4.57,1.09,6.87,1.49c5.55,0.98,6.6,0.64,8.65-4.58c7.51-19.08,1.34-33.76-14.09-44.06c-11.41-7.61-24.49-9.06-37.93-7.2 c-23.26,3.21-40.08,17.29-55.7,33.28c-1.78,1.82-3.23,4.09-4.35,6.38c-4.6,9.47-9.25,18.77-11.08,29.48 c-4.3,25.27,2.56,45.89,23.14,61.61c4.48,3.42,9.13,6.67,13.29,10.45c24.68,22.47,49.15,45.16,72.19,69.34 c2.43,2.55,4.91,5.07,7.54,7.41c4.89,4.34,6.23,4.4,11.63,0.65c12.14-8.42,24.21-16.95,36.35-25.37 c10.04-6.96,19.87-14.26,30.31-20.58c5.5-3.33,8.85-7.4,11.71-13.07C1213.48,268.03,1217.98,247.68,1217.64,224.74z M1043.3,354.83 c-2.66,13.23-9.06,24.14-18.54,32.96c-7.2,6.7-14.82,13.16-23.05,18.48c-9.46,6.11-20.19,8.78-31.64,6.16 c-9.05-2.07-11.85-5.44-11.98-14.52c-0.21-14.22,2.58-28,6.06-41.71c3.82-15.06,12.73-25.92,26.34-33.13 c2.49-1.32,4.99-2.61,7.43-4.03c1.74-1.01,3.36-2.21,5.14-3.4c-0.73-0.96-1.04-1.67-1.58-2.04c-11.01-7.59-21.89-15.4-33.14-22.64 c-11.05-7.12-22.51-13.61-33.74-20.45c-30.24-18.44-61.93-33.38-96.81-40.89c-15.89-3.42-31.9-4.42-47.31,0.89 c-15.56,5.35-26.38,15.94-28.99,33.17c-0.67,4.43,0.71,7.49,4.65,10.02c19.95,12.82,39.75,25.88,59.62,38.83 c1.96,1.28,3.91,2.69,6.07,3.49c3.04,1.13,5.12-0.29,5.3-3.56c0.16-3.04-0.27-6.1-0.31-9.15c-0.17-11.97-1-24.03,2.86-35.64 c3.25-9.78,9.55-12.27,18.6-7.38c3.7,2,7.04,4.66,10.63,6.89c8.77,5.44,17.66,10.69,26.37,16.23c7.66,4.87,13.65,11.43,18.42,19.15 c8.24,13.35,7.08,28.7-3.28,40.33c-2.81,3.15-5.94,6.02-8.96,8.98c-4.68,4.59-5.73,7.33-2.63,13.08 c3.08,5.72,6.96,11.12,11.16,16.1c4.68,5.55,10.22,10.37,15.22,15.66c26,27.5,51.95,55.06,77.95,82.56 c1.56,1.65,3.4,3.02,5.89,5.21c2.13-3.31,4.02-5.9,5.53-8.69c2.01-3.71,3.6-7.64,5.59-11.36c13.3-24.86,30.94-46.49,50.06-67.01 c2.89-3.09,5.91-6.08,8.6-9.34c5.4-6.54,5.16-9.17-1.03-14.82c-4.86-4.44-10.01-8.59-14.58-13.3 C1057.7,354.3,1051.35,352.98,1043.3,354.83z M1799.8,889.57c22.51,0.39,38.82-8.56,50.53-26.15c1.43-2.15,2.8-4.34,4.28-6.46 c8.18-11.7,18.67-20.33,32.48-24.65c3.35-1.05,6.69-2.27,9.8-3.86c6.26-3.2,11.31-7.8,13.28-14.78c2.91-10.29,4.23-20.85,1.1-31.27 c-2.01-6.68-5.24-12.98-7.83-19.49c-7.02-17.65-13.97-35.32-20.98-52.97c-5.54-13.95-10.75-28.04-16.84-41.74 c-2.73-6.13-6.93-11.71-11.07-17.07c-5.93-7.66-13.41-6.8-17.56,1.77c-1.62,3.35-3.08,6.91-3.85,10.54 c-3.04,14.22-5.94,28.48-8.59,42.78c-4.84,26.12-14.56,50.42-26.87,73.8c-6.46,12.27-15.57,21.55-28.77,26.68 c-9.39,3.66-18.56,7.89-27.8,11.95c-2.35,1.03-4.74,2.15-6.8,3.64c-4.66,3.37-5.59,7.32-2.74,12.26c1.51,2.61,3.64,4.87,5.58,7.21 c7.19,8.68,15.09,16.86,21.48,26.09C1769.08,882.9,1782.9,890.18,1799.8,889.57z M1033.54,1634.5c-0.15,0.66-0.3,1.32-0.46,1.99 c2.04,1.86,3.93,3.91,6.14,5.53c5.95,4.38,9.62,10.28,11.58,17.23c2.1,7.45,4.17,14.95,5.64,22.54c1.58,8.11,0.49,15.79-5.13,22.54 c-7.29,8.76-13.85,10.1-23.15,3.64c-5.2-3.62-10.03-7.76-14.94-11.79c-10.43-8.56-18.86-18.35-19.73-32.71 c-0.16-2.58-1.25-4.31-4.28-4.58c-4-0.35-6.19-3.24-7.44-6.69c-2.08-5.73-3.96-11.53-5.79-17.35c-1.56-4.97-0.11-9.25,3.45-12.9 c3.94-4.04,7.75-8.21,11.87-12.07c4.76-4.46,7.92-9.78,10.15-15.85c2.43-6.61,4.95-13.2,7.92-19.58 c3.48-7.48,7.53-14.81,14.16-19.97c20.84-16.22,44.23-24.24,70.91-21.2c4.42,0.5,8.93,0.67,13.37,0.42 c7.07-0.39,10.21-3.36,11.2-10.31c0.42-3,0.46-6.11,0.22-9.13c-0.94-11.64-3.44-22.47-12.24-31.36 c-7.24-7.32-13.35-15.78-19.84-23.83c-6.82-8.46-14.58-8.9-21.84-0.76c-4.22,4.73-8.22,9.69-11.98,14.79 c-5.26,7.11-11.74,12.67-19.26,17.3c-9.4,5.79-18.54,12.01-27.72,18.14c-6.15,4.11-10.78,9.59-14.84,15.8 c-6.89,10.53-12.12,21.68-15,33.94c-0.8,3.42-1.98,6.76-2.97,10.13c-2.57,8.72-7.23,16.1-13.26,22.96 c-7.43,8.45-14.38,17.38-20.91,26.55c-6.46,9.07-7.5,19.03-2.26,29.26c3.58,6.99,5.66,14.3,5.62,22.3 c-0.07,12.45,4.05,23.51,12.35,32.9c9.98,11.28,19.65,22.76,27.18,35.9c2.6,4.54,6.75,7.11,12.11,7.42 c6.56,0.38,13.14,1.34,19.66,1.01c23.84-1.2,40.63-10.84,47.16-35.51c2.82-10.68,7.31-20.74,13.57-30.02 c3.52-5.22,6.68-10.83,9.05-16.66c3.6-8.81,0.63-16.85-7.4-21.93c-10.41-6.59-21.91-9.49-34.16-9.33 C1039.35,1633.31,1036.45,1634.07,1033.54,1634.5z M380.89,1051.39c0.84-18.6-4.56-38.22-7.54-58.15 c-2.32-15.5-10.76-28.37-18.47-41.53c-1.79-3.05-4.49-3.98-7.77-3.54c-11.84,1.6-23.79,2.66-35.47,5.05 c-11.2,2.29-22.64,4.74-33.05,9.27c-26.24,11.42-45.69,30.78-60.07,55.37c-2.36,4.03-3.35,8.32-2.25,12.85 c3.72,15.31,11.62,27.59,26.02,34.97c12.38,6.34,25.41,11.25,39.07,13.51c20.31,3.35,38.48,11.46,55.83,22.05 c5.37,3.28,11.03,6.31,16.92,8.47c10.13,3.7,15.51,1.02,19.57-8.77c0.81-1.94,1.41-3.98,2-6.01 C379.62,1081.29,381.37,1067.37,380.89,1051.39z M1690.61,587.83c5.61,2.42,9.41,2.58,17.76,1.8c25.89-2.4,51.66-1.07,77.08,4.25 c10.73,2.25,21.05,6.42,31.63,9.45c9.15,2.62,17.58,1.75,24.61-5.68c3.37-3.57,7.16-6.8,10.99-9.89c8.47-6.84,9.29-9.79,4.84-19.88 c-0.85-1.93-1.89-3.78-2.81-5.68c-2.23-4.65-4.86-9.16-6.57-14c-4.38-12.36-12.84-21.2-23.54-28.09 c-7.28-4.68-12.38-2.86-16.45,4.52c-4.76,8.62-9.63,17.21-15.08,25.4c-2.53,3.8-6.17,7.19-9.98,9.76 c-6.8,4.58-15.23,2.94-18.89-3.92c-6.06-11.37-14.51-20.75-23-30.18c-7.05-7.83-11.76-16.94-14.74-26.97 c-3.79-12.75,2.22-25.39,14.44-30.34c3.71-1.5,6.99-3.73,7.18-7.89c0.46-9.75,5.45-16.17,13.7-20.6c0.62-0.33,1.16-0.8,1.72-1.23 c6.34-4.97,7.36-8.35,4.73-15.91c-0.54-1.55-1.15-3.08-1.86-4.56c-5.89-12.27-11.17-24.89-17.88-36.7 c-7.45-13.13-20.64-17.26-33.61-9.61c-4.79,2.83-9.14,6.67-13,10.71c-2.47,2.59-4.44,6.19-5.32,9.67 c-3.14,12.33-4.18,24.86-3.81,37.68c1.01,35.22,1.4,70.47,1.89,105.7c0.07,4.91-0.64,9.84-1.16,14.74 c-0.88,8.16-2.07,16.29-2.79,24.47C1690.29,579.22,1690.61,583.67,1690.61,587.83z M665.8,1600.47c0.29,0.69,0.57,1.38,0.86,2.06 c3.18,0,6.35-0.01,9.53,0c8.19,0.02,16.42-0.38,24.57,0.17c18.58,1.26,36.64,0.43,53.08-9.78c7.38-4.58,14.93-8.88,22.42-13.3 c5.89-3.48,11.95-6.63,18.85-7.48c6.06-0.74,12.16-1.07,18.22-1.79c6.24-0.74,12.6-0.56,18.35-4.07 c11.22-6.85,22.43-13.79,34.06-19.9c14.31-7.52,29.05-14.22,43.58-21.32c3.16-1.54,6.58-2.82,9.27-4.97 c8.25-6.59,16.9-12.89,24.12-20.51c14.59-15.4,29.57-30.22,46.65-42.89c19.07-14.14,30.48-33.57,37.27-55.91 c1.48-4.88,2.17-10.11,2.45-15.22c0.27-5.07-1.44-6.38-6.39-5.69c-2.51,0.35-5.13,1.07-7.32,2.3c-4.68,2.65-9.48,5.31-13.59,8.74 c-19.84,16.57-40.2,32.62-58.98,50.34c-21.55,20.34-46.11,33.48-75.18,38.74c-5.2,0.94-10.29,3.18-15.1,5.51 c-6.42,3.11-9.55,8.74-10.17,15.83c-0.7,7.95,0.16,15.49,5.11,22.12c4.58,6.13,3.69,12.51,0.12,18.5 c-4.24,7.11-10.34,12.25-18.76,13.67c-2.66,0.45-5.69,0.26-8.25-0.57c-9.8-3.16-19.5-6.65-29.2-10.1 c-6.76-2.41-8.01-4.91-5.82-11.83c1.21-3.8,2.96-7.43,4.1-11.24c1.85-6.18-0.14-8.86-6.59-9.18c-11.37-0.56-21.86,1.77-31.16,8.83 c-6.46,4.9-11.83,10.52-15.94,17.61c-11.41,19.66-26.32,35.95-46.61,46.86c-6,3.22-11.99,6.45-17.87,9.88 C669.39,1597.1,667.68,1598.93,665.8,1600.47z M803.41,875.41c-2.5-2.07-3.82-3.33-5.3-4.35c-24.6-16.89-45.63-37.59-64.68-60.42 c-3.15-3.78-6.46-7.53-10.23-10.65c-6.42-5.32-15.65-2.26-17.83,5.73c-0.79,2.9-1.02,6.01-1.12,9.04 c-0.19,5.63,0.07,11.28-0.15,16.91c-0.27,6.9-1.77,13.52-5.88,19.26c-6.92,9.66-15.88,16.45-27.46,19.75 c-12.87,3.67-25.97,3.47-39.14,2.94c-5.35-0.22-8.77-2.84-11.07-7.35c-2.22-4.33-0.02-7.81,2.58-10.91 c5.26-6.26,8.33-13.56,10.68-21.23c1.92-6.28,3.79-12.57,5.66-18.87c1.58-5.31,4.63-9.64,8.38-13.66 c6.6-7.07,14.47-11.6,23.82-14.23c6.7-1.89,13.33-4.51,19.48-7.76c6.34-3.35,7.86-8.46,4.83-14.94c-2.16-4.61-5.12-8.96-8.32-12.95 c-8.23-10.26-16.74-20.3-25.23-30.35c-4.55-5.38-9.19-10.69-13.97-15.87c-2.03-2.2-4.33-4.88-7.79-3.63 c-3.25,1.18-4.02,4.31-4.3,7.49c-0.43,4.91-1.13,9.81-1.28,14.73c-0.31,9.94-2.14,19.57-5.1,29.03 c-9.47,30.22-26.53,55.83-48.09,78.62c-6.45,6.81-13.57,12.99-20.31,19.54c-6.16,5.99-6.14,7.58-2.55,15.25 c3.57,7.62,6.93,15.39,9.72,23.32c4.45,12.64,6.2,13.59,19.48,11.38c15.02-2.49,30.14-4.48,45.25-6.43 c13.73-1.77,27.48-3.33,41.25-4.76c21.7-2.25,43.4-4.79,65.16-6.29c17.81-1.23,35.56-2.7,53.13-5.87 C796.15,877.33,799.21,876.43,803.41,875.41z M453.27,376.19c2.55,0.59,4.09,1.02,5.65,1.3c9.09,1.63,14.53,7.01,16.8,15.89 c0.99,3.86,2.21,7.67,3.51,11.44c2.83,8.21,8.24,14.1,16.24,17.56c1.94,0.84,3.84,1.76,5.8,2.55c4.21,1.71,7.27,4.8,8.19,9.07 c0.92,4.26,1.27,8.83,0.82,13.15c-1.05,10.03-7.26,17.08-14.81,23.09c-12.31,9.8-25.14,18.99-35.77,30.75 c-0.62,0.69-1.41,1.25-2.16,1.8c-6.82,5.05-11.48,4.85-17.42-1.19c-9.51-9.67-15.18-21.22-17.41-34.68 c-1.38-8.33-0.29-15.97,4.13-22.99c5.04-8.01,10.95-15.25,19.53-19.9c2.87-1.55,5.56-3.51,8.08-5.59c2.29-1.89,3.44-4.43,2.42-7.55 c-3.29-10.06-15.29-13.3-22.68-5.78c-3.75,3.82-7.05,8.24-9.83,12.83c-15.53,25.65-26.74,52.78-27.3,83.36 c-0.18,9.87-0.63,19.74-0.56,29.61c0.04,5.86,1.77,7.04,7.47,6.11c4.63-0.75,9.23-1.7,13.83-2.6c14.27-2.78,28.43-6.22,43.12-6.28 c19.11-0.08,37.95,1.93,56.53,6.38c2.05,0.49,4.13,0.92,6.22,1.2c5.3,0.7,7.09-0.83,6.64-6.09c-0.38-4.44-1.32-8.83-1.86-13.26 c-2.18-17.74-1.58-35.12,5.92-51.83c4.61-10.28,8.58-20.84,12.98-31.22c3.96-9.35,4.39-18.64,0.18-28.01 c-5.72-12.74-7.6-26.14-6.25-39.94c0.86-8.8-1.6-16.76-5.03-24.54c-6.07-13.75-23.9-18.93-35.82-13.17 c-7.27,3.51-14.07,7.76-19.45,13.75c-8.31,9.27-16.29,18.84-24.27,28.4C455.33,371.48,454.6,373.68,453.27,376.19z M1813.71,1298.13c3.49-0.95,5.76-1.4,7.92-2.18c28.96-10.41,57.26-22.21,82.98-39.45c2.72-1.83,5.65-3.35,8.42-5.12 c16.57-10.61,31.18-23.44,42.68-39.44c15.33-21.34,19.21-44.41,8.88-69.19c-2.17-5.21-5-6.82-10.39-5.16 c-1.99,0.62-3.8,1.83-5.75,2.61c-9.8,3.86-19.46,8.16-29.47,11.36c-10.47,3.34-21.25,5.74-31.95,8.3 c-17.78,4.25-35.56,8.08-51.25,18.49c-13.1,8.69-22.08,20.12-27.39,34.68c-2.38,6.52-3.25,13.41-1.79,20.12 c4.11,18.91,5.79,38.01,5.86,57.32C1812.45,1292.69,1813.15,1294.92,1813.71,1298.13z M379.11,1223.1 c-1.28-9.53-2.14-19.13-3.92-28.56c-4.14-21.97-13.22-41.1-32.92-53.62c-0.98-0.63-1.87-1.43-2.73-2.23 c-4.81-4.52-10.06-4.21-15.63-1.62c-5.71,2.65-6.48,7.56-6.18,13c0.1,1.88,0.51,3.75,0.49,5.62c-0.09,7.25,0.2,14.55-0.58,21.73 c-1.07,9.78-2.77,19.51-4.61,29.19c-1.12,5.9-1.04,11.6,0.06,17.47c0.82,4.35,1.39,8.88,1.11,13.27c-0.39,6.13-2.93,8.12-9.13,8.33 c-3.52,0.12-7.07-0.21-10.58,0.05c-6.45,0.47-11.78-1.79-17.04-5.39c-13.72-9.41-23.31-22.35-32.2-36.02 c-5.95-9.16-10.28-18.97-12.72-29.61c-4.07-17.72-1.78-33.51,12.97-46.07c5.96-5.08,6.53-12.04,1.88-18.33 c-9.35-12.63-22.05-20.24-37.42-23.17c-6.75-1.29-11.16,1.69-12.18,8.5c-0.86,5.75-1.13,11.72-0.68,17.51 c1.43,18.35,6.26,36.01,11.24,53.67c7.64,27.09,20.98,50.72,41.67,69.91c20.87,19.35,44.77,34.11,70.94,45.19 c9.25,3.91,18.9,3.84,28.25,0.6c11.66-4.04,18.81-12.9,23.21-24.08C376.85,1247.11,378.57,1235.31,379.11,1223.1z M608.95,720.86 c0.12-19.75-5.9-37-20.83-50.48c-15.41-13.91-32.81-21.84-54.11-16.87c-3.13,0.73-6.23,1.98-9.04,3.53 c-2.38,1.31-3.44,3.78-2.94,6.66c0.52,3.07,2.87,4.18,5.44,4.8c1.8,0.43,3.72,0.54,5.58,0.53c4.23-0.02,8.47-0.4,12.69-0.29 c18.39,0.48,33.09,8.23,39.88,25.76c2.94,7.59,4.5,15.31,4.15,23.4c-0.8,18.42-6.03,35.46-15.24,51.48 c-4.43,7.69-15.7,6.84-19.58,0.78c-0.76-1.19-1.61-2.32-2.26-3.57c-6.49-12.47-16.17-21.79-28.25-28.8 c-2.84-1.65-5.57-3.52-8.24-5.43c-12.39-8.89-15.37-17.97-10.58-32.47c0.95-2.89,2.38-5.62,3.48-8.47 c0.84-2.18,1.75-4.38,2.23-6.65c1.29-6.12-0.93-11.37-6.44-14.25c-2.84-1.48-6.11-2.45-9.3-2.87c-8.54-1.13-16,1.98-21.64,8.08 c-9.89,10.68-19.29,21.81-28.67,32.94c-2.75,3.26-2.94,7.42-1.29,11.37c0.98,2.36,2.13,4.79,3.76,6.72 c8.18,9.68,15.94,19.84,24.97,28.67c23.68,23.15,39.41,50.57,47.08,82.7c0.38,1.59,0.9,3.18,1.62,4.64 c1.23,2.52,3.27,3.5,5.75,1.85c3.12-2.07,6.29-4.17,9.04-6.69c24.68-22.66,47.55-46.74,62.77-77.2 C605.34,748.02,608.95,734.97,608.95,720.86z M417.74,1517.01c-2.66-3.12-4.78-5.55-6.84-8.04c-6.27-7.6-12.86-14.97-18.71-22.88 c-13.19-17.84-24.2-36.92-31.02-58.19c-2.21-6.88-1.34-9.29,5.02-12.47c6.22-3.12,13-3.69,19.83-4.19 c5.27-0.39,8.14,1.99,10.39,6.55c4.66,9.46,9.36,18.95,14.81,27.97c9.15,15.16,20.06,28.97,34.13,40.03 c6.17,4.85,9.31,4.41,13.99-1.79c8.65-11.43,10.24-24.31,8.7-38.11c-3.16-28.43-16.19-52.21-34.53-73.4 c-6.6-7.63-13.94-14.65-21.28-21.59c-4.07-3.85-8.67-7.22-13.35-10.34c-6.89-4.59-13.39-1.32-13.8,6.84 c-0.2,3.97,0.15,7.98,0.33,11.97c0.18,3.95,2.23,6.42,5.93,7.89c3.26,1.29,6.45,2.84,9.48,4.6c5.03,2.93,6.74,7.43,5.36,13.23 c-1.04,4.39-4.11,6.82-10.06,7.17c-3.96,0.23-8-0.02-11.95-0.51c-16.32-1.99-30.06,3.38-41.78,14.46 c-5.57,5.27-9.52,11.58-10.9,19.31c-4.01,22.49-3.04,44.13,7.65,65.16C356.06,1523.99,383.84,1530.67,417.74,1517.01z M1312.16,1862.58c-2.68-2.08-4.63-3.59-6.58-5.1c-5.62-4.39-9.52-9.89-9.86-17.17c-0.22-4.9-0.08-9.89,0.63-14.73 c1.05-7.19,2.73-14.29,4.18-21.42c4.54-22.23,0.47-42.46-13.96-60.3c-11.51-14.24-22.34-29.11-34.71-42.56 c-13.34-14.51-28.05-27.77-42.34-41.39c-3.79-3.61-8.34-2.11-9.6,3c-0.72,2.91-0.72,6.08-0.55,9.1c0.37,6.51-0.81,12.59-3.8,18.38 c-4.64,8.96-9.24,17.95-13.76,26.97c-1.99,3.98-4.09,7.96-5.52,12.16c-2.43,7.14-0.84,11.72,5.5,15.72 c4.35,2.75,9.08,4.91,13.7,7.21c11.02,5.46,21.32,11.97,29.98,20.79c6.91,7.05,13.99,13.99,20.3,21.55 c4.32,5.17,8.14,11,11.01,17.09c6.83,14.51,5.41,28.73-3.28,42.22c-1.22,1.89-2.22,3.92-3.25,5.76 C1262.88,1870.02,1295.99,1871.68,1312.16,1862.58z M1414.33,1773.33c5.88,0,11.77-0.2,17.63,0.06c5.04,0.22,8.58-1.66,11.01-6.02 c1.26-2.25,2.69-4.42,4.18-6.53c4.57-6.45,6.12-13.61,5.32-21.38c-0.17-1.64-0.25-3.28-0.3-4.93c-0.28-9.16,2.6-12.71,11.64-14.43 c5.72-1.09,7.34-0.27,10.12,4.97c3.76,7.1,6.24,14.6,7.92,22.48c1.84,8.62,5.15,10.46,13.69,8.36 c23.09-5.66,38.64-20.36,48.79-41.27c4.2-8.65,3.19-17.17-3-24.42c-11.29-13.24-23.12-26.03-36.99-36.67 c-2.75-2.11-5.96-3.8-9.2-5.05c-3.37-1.31-5.53,0.08-6.07,3.69c-0.42,2.76-0.44,5.66-0.11,8.43c1.38,11.52-3.5,19.9-12.47,26.63 c-6.2,4.65-12.2,9.59-18.02,14.71c-5.59,4.92-11.97,8.32-18.95,10.53c-10.06,3.19-20.24,5.99-30.34,9.02 c-15.91,4.77-30.57,2.54-44.03-7.41c-5.1-3.76-10.32-7.44-15.83-10.53c-7.91-4.43-13.08-2.86-16.26,5.47 c-3.42,8.95-5.92,18.27-8.5,27.52c-1.86,6.66,0.6,12.31,6.14,15.98c5.03,3.34,10.49,6.26,16.12,8.45 C1368.49,1769.42,1391.12,1773.04,1414.33,1773.33z M810.62,1634.94c0.32,0.75,0.65,1.5,0.97,2.24c6.49,0,12.98-0.14,19.46,0.04 c7.28,0.2,14.56,0.62,20.98,4.77c13.13,8.49,20.38,20.04,20.69,36.13c0.18,9.45-2.65,16.68-9.66,22.98 c-5.56,4.99-10.37,10.83-15.34,16.45c-4.77,5.38-10.16,8.79-17.79,7.99c-2.91-0.31-6.12,0.24-8.9,1.22 c-5.66,1.99-6.54,3.83-5.38,9.59c0.69,3.44,1.96,6.79,2.49,10.25c1.65,10.71,8.37,18.19,15.96,24.96 c4.61,4.11,10.26,6.89,16.6,6.84c10.78-0.09,21.58-0.28,32.31-1.19c3.47-0.29,7.12-2.44,10.03-4.61 c5.44-4.06,10.44-8.72,15.55-13.21c11.9-10.43,17.55-23.84,16.82-39.39c-0.42-9.05-2.57-18.07-4.51-26.98 c-2.15-9.87-7.36-16.96-18.35-18.58c-5.69-0.84-8.58-4.86-9.74-10.6c-3.68-18.05-3.85-35.85,2.42-53.44 c1.41-3.96,2.61-8.06,3.27-12.2c0.74-4.62-1.36-7.58-5.82-7.95c-7.46-0.61-15.26-1.7-22.23,1.62c-8.64,4.11-17.25,8.57-25.08,14.02 c-10,6.96-19.25,15-28.72,22.71C814.41,1630.44,812.62,1632.81,810.62,1634.94z M1240.68,1530.79c3.75-0.39,8.19,1.54,12.44,4.26 c6.27,4,10.98,9.49,15.19,15.49c9.9,14.11,21.13,26.96,34.92,37.48c3.7,2.83,6.95,6.32,10.13,9.76c4.38,4.75,7.48,10.4,8.48,16.76 c3.55,22.63-6.81,40.56-22.73,48.99c-2.9,1.54-5.88,2.94-8.71,4.6c-11.03,6.45-12.17,20.69-2.38,29.05 c4.47,3.81,8.11,3.97,12.6,0.25c1.98-1.64,3.94-3.45,5.39-5.54c10.11-14.58,22.72-26.91,35.35-39.17 c5.85-5.68,9.8-12.52,13.86-19.37c3.66-6.17,3.02-12.06-1.26-17.71c-1.99-2.62-4.11-5.17-5.77-7.99 c-8.82-15.01-16.48-30.58-21.24-47.38c-2.4-8.48-6.53-16.05-10.95-23.52c-5.06-8.55-12.06-14.98-21.29-18.75 c-7.15-2.92-14.57-5.22-21.64-8.34c-9.83-4.34-19.54-9.01-29.12-13.88c-10.23-5.19-19.99-11.38-30.45-16.01 c-8.37-3.71-17.49-5.19-26.82-2.84c-12.08,3.05-17.5,11.36-14.97,23.68c2.22,10.8,7.17,20.3,14.32,28.66 c8.11,9.48,20.34,13.52,33.6,6.51C1225.75,1532.54,1232.35,1531.09,1240.68,1530.79z M1761.97,1428.77 c-7.66,0.97-15.55,1.1-22.95,3.06c-24.55,6.5-37.24,24.11-42.06,47.93c-2.44,12.03,4.55,23.07,16.11,27.28 c6.6,2.41,13.24,4.8,20.01,6.66c7.07,1.94,11.28,6.52,13.49,13.12c1.03,3.08,1.31,6.41,1.96,9.63c0.78,3.9,1.17,7.94,2.48,11.65 c1.73,4.89,4.68,6.02,9.41,4.1c2.37-0.96,4.67-2.25,6.73-3.77c13.12-9.66,25.02-20.64,34.84-33.67c3.08-4.09,5.55-8.71,7.8-13.33 C1825.04,1470.01,1799.67,1425.65,1761.97,1428.77z M366,617.12c-4.78-0.56-8.02,1.51-11.07,3.59 c-13.58,9.24-25.07,20.58-33.22,34.94c-8.58,15.13-6.45,30.56,5.17,42.68c4.5,4.69,9.13,6.11,15.08,3.14 c7.09-3.53,14.11-2.56,20.95,0.93c1.88,0.96,3.69,2.05,5.55,3.05c7.22,3.86,14.35,7.89,21.69,11.5c8.78,4.32,10.3,9.56,4.07,17.23 c-11.38,14-25.69,23.99-42.83,29.67c-4.18,1.39-8.68,2.2-13.08,2.42c-11.02,0.55-16.74-3.67-19.42-14.28 c-1.32-5.21-1.64-10.66-2.68-15.95c-1.08-5.5-1.96-11.14-3.88-16.37c-2.87-7.77-9.02-11.01-16.63-9.81 c-5.93,0.94-9.57,5.06-10.08,13.41c-1.37,22.18,5.44,41.36,23.03,55.62c10.09,8.17,21.91,11.65,34.99,8.88 c19.58-4.15,36.72-13.07,50.51-27.62c12.87-13.58,17.67-30.12,15.86-48.66c-1.58-16.23-9.41-29.84-18.15-43.02 c-4.02-6.06-8.71-11.7-12.52-17.88c-3.05-4.96-5.55-10.32-7.69-15.74C369.42,629.2,367.93,623.28,366,617.12z M480.18,945.51 c5.64,0,11.31,0.32,16.92-0.06c18.13-1.24,27.55-10.6,34.69-25.74c0.86-1.82,1.27-4.23,0.91-6.18c-1.29-6.91-2.77-13.81-4.66-20.58 c-1.15-4.11-3.11-4.96-6.9-3.05c-4.16,2.1-8.06,4.79-11.89,7.47c-13.51,9.47-27.63,17.89-43.2,23.46 c-21.46,7.68-43.49,13.27-66.13,16.28c-7.96,1.06-9.39,2.88-9.1,10.91c0.05,1.4,0.13,2.84,0.46,4.19 c5.34,21.88,10.62,43.78,16.13,65.62c2.42,9.6,4.37,10.3,14.1,6.98c3.97-1.35,8.11-2.6,12.25-2.92c10.06-0.77,20.17-0.99,30.26-1.4 c12.9-0.52,25.89-0.29,38.69-1.68c17.34-1.89,30.55-11.35,33.24-28.39c1.82-11.52,1.81-23.36,2.16-35.08 c0.14-4.6-1.33-5.49-6.08-5.98c-10.13-1.05-19.26,4.6-23.35,14.51c-4.03,9.76-7.82,19.63-12.09,29.29 c-5.55,12.56-14.26,16.89-27.77,14.84c-12.95-1.96-24.73-7.19-36.47-12.53c-4.84-2.21-8.29-6.13-10.85-10.75 c-3.87-6.97-3.09-13.52,2.39-19.4c7.51-8.05,16.41-13.73,26.98-17.24C460.56,944.88,470.35,945.69,480.18,945.51z M561.07,1549.72 c0.83,7.65,1.39,16.1,2.73,24.42c2.59,16,16.11,29.26,32.2,32.06c8.84,1.54,17.45,0.28,25.27-3.91 c11.36-6.08,22.45-12.68,33.53-19.28c5.56-3.32,8.45-8.74,9.72-14.92c1.78-8.62-0.99-15.4-8.87-18.61 c-11.72-4.78-23.92-6.85-36.2-1.55c-4.95,2.14-9.7,4.73-14.69,6.78c-4.22,1.74-6.18,0.31-6.5-4.19 c-0.59-8.14,5.12-16.42,13.7-19.24c3.76-1.23,7.74-1.84,11.66-2.52c17.89-3.11,35.1-1.59,50.91,8.12 c7.2,4.42,13.91,3.62,20.18-1.42c4.93-3.97,9.62-8.25,14.15-12.67c5.52-5.39,4.74-9.82-2.39-12.83c-6.36-2.69-13.09-3.57-20-2.3 c-13.72,2.54-27.48,3.46-41.23,0.32c-12.19-2.78-24.52-3.67-37.01-3.96c-14.54-0.33-26.45,5.34-37.01,14.61 c-5.71,5.01-8.86,11.48-9.55,19.05C561.34,1541.42,561.29,1545.18,561.07,1549.72z M1452.56,1634.23 c0.13-7.31-1.78-16.15-4.57-24.99c-3.79-12-10.12-23.36-9.98-36.45c0-0.23-0.06-0.47-0.13-0.69c-6.1-18.92-16.86-33.96-35.43-42.48 c-7.96-3.65-12.54-1.91-15.08,6.52c-2.09,6.94-3.22,14.17-4.9,21.24c-3.03,12.78,6.16,26.75,21.84,27.46 c5.16,0.23,10.31,0.84,15.48,0.96c7.94,0.18,12.47,4.52,15.06,11.57c4.29,11.7,2.06,15.42-10.26,16.69 c-5.2,0.54-10.19,1.52-14.56,4.64c-12.45,8.89-24.42,18.39-35.04,29.41c-4.52,4.7-8.51,10.04-11.99,15.57 c-4.49,7.11-4.05,14.66-0.21,22.14c6.01,11.73,16.57,16.26,28.7,17.55c9.48,1.01,18.95-0.89,27.37-5.14 c6.13-3.1,11.89-7.57,16.66-12.54c3.96-4.13,6.55-9.71,9.2-14.94C1450.19,1659.92,1453.38,1648.47,1452.56,1634.23z M1605.44,1694.05c2.33,0.81,4.02,1.77,5.79,1.96c9.79,1.03,19.58,2.15,29.4,2.63c4.38,0.21,9.03-0.37,13.2-1.7 c25.13-8.03,43.71-24.44,56.67-46.95c8.76-15.22,6.48-27.52-5.51-40.31c-0.48-0.51-0.96-1.04-1.44-1.55 c-17.53-18.64-38.7-23.42-62.98-16.69c-7.2,2-11.75,6.5-14.02,13.5c-0.94,2.9-1.56,5.99-3,8.62c-4.58,8.39-5.53,17.29-4.79,26.61 c1.37,17.37-2.18,33.58-11.61,48.4C1606.22,1690.02,1606.07,1691.95,1605.44,1694.05z M477.77,563.8c-2.43-4.1-5.43-4.48-8.44-4.99 c-12.21-2.08-24.41-1.03-36.53,0.49c-7.43,0.93-14.78,2.8-21.33,6.77c-8.04,4.88-10.24,11.1-6.66,19.75 c1.79,4.32,4.02,8.48,6.28,12.59c6.57,11.97,16.7,20.9,26.48,30c11.66,10.85,25.51,16.63,41.76,14.86 c15.4-1.68,30.78-3.51,46.13-5.6c15.05-2.04,29.97-1.74,44.82,1.43c8.86,1.89,17.69,3.96,28.28,6.35c-1.88-3.51-2.73-5.59-4-7.38 c-5.55-7.87-11.09-15.75-16.88-23.45c-7.23-9.64-15.67-18.11-25.41-25.26c-8.42-6.18-17.99-8.87-28.29-9.42 c-9.58-0.51-17.45,3.09-23.72,10.17c-3.11,3.51-5.99,7.24-8.78,11.02c-3.58,4.85-8.44,7.92-14.26,8.09 c-18.68,0.55-34.92-6.21-48.9-18.26c-3.94-3.4-2.47-7.27,2.65-8.83c1.11-0.34,2.31-0.4,3.47-0.6 C450,578.83,462.83,569.75,477.77,563.8z M1974.56,1055.1c5.75-4.93,6.06-10.55,6.48-15.77c2.39-29.18-2.76-56.8-19.65-81.17 c-15.64-22.57-37.07-35.59-65.27-35.32c-17.96,0.17-35.43,13.16-41.14,30.13c-1.82,5.42-1.41,6.61,3.92,9.47 c7.23,3.89,14.71,7.35,21.77,11.52c10.1,5.96,20.29,11.87,29.77,18.72c21.42,15.5,40.54,33.51,56.71,54.54 C1969.22,1049.93,1971.83,1052.22,1974.56,1055.1z M1475.2,1528.41c0.48,2.45,0.41,4.15,1.12,5.41c3.47,6.21,4.08,12.97,3.76,19.8 c-0.43,9.14-1.05,18.29-2.01,27.39c-1.43,13.56,2.32,25.16,12.58,34.24c4.02,3.55,8.43,6.83,13.11,9.42 c8,4.42,16.44,8.01,24.53,12.28c10.56,5.58,21.14,11.17,31.35,17.37c4.7,2.85,8.52,7.15,12.83,10.87c3.39-1.79,4.49-4.98,5.08-8.13 c0.72-3.9,1.32-7.96,1.04-11.88c-1.25-17.74-4.48-34.93-15.35-49.76c-2.35-3.21-4.34-6.7-6.45-10.09 c-14.94-23.91-36.48-40.05-61.49-52.04C1489.37,1530.46,1483.05,1528.83,1475.2,1528.41z M777.36,1793.78 c8.14,0.28,15.05-0.32,21.82-2.84c8.1-3.01,10.27-5.37,9.79-13.89c-0.45-7.96-1.47-15.88-2.37-23.81 c-0.72-6.32-4.07-10.86-9.75-13.75c-2.3-1.17-4.49-2.56-6.73-3.84c-9.95-5.71-18.35-13.05-24.31-22.99 c-2.65-4.43-5.43-8.78-8.14-13.18c-2.57-4.18-3.96-5.15-8.61-3.9c-3.53,0.95-7.41,2.24-10.02,4.61c-4.1,3.73-7.84,8.15-10.67,12.9 c-3.35,5.61-5.84,11.78-8.24,17.89c-6.33,16.17-1.45,43.77,20.94,54.02C752.99,1790.45,765.22,1794.01,777.36,1793.78z M590,1675.06c19.36,1.22,38.97-2.37,58.24-7.75c6.46-1.8,12.69-4.88,18.54-8.23c6.58-3.77,10.6-9.62,11.44-17.59 c1.1-10.45-1.19-13.07-11.93-12.28c-9.12,0.67-18.23,1.67-27.36,2.07c-7.27,0.32-14.57-0.18-21.85-0.07 c-19.65,0.28-38.23-3.6-55.31-13.67c-1.01-0.59-2.05-1.21-3.16-1.54c-5.87-1.75-11.15-0.52-15.76,3.46 c-3.62,3.13-3.46,7.35-1.96,11.06c3.59,8.89,4.27,18.2,5.28,27.54c0.28,2.62,1.44,5.67,3.23,7.52 c6.76,6.98,14.75,11.52,25.02,10.53C579.31,1675.61,584.24,1675.43,590,1675.06z M1295.36,1626.84c-0.1-5.1-1.9-10.14-6.01-14.02 c-2.88-2.73-5.97-5.38-9.36-7.4c-10.36-6.16-17.25-14.84-21.2-26.22c-1.67-4.81-4.37-9.33-7-13.74c-2.79-4.67-7.17-6.47-12.64-5.71 c-9.52,1.32-19.06,2.43-28.57,3.83c-3.22,0.47-6.44,1.33-9.52,2.41c-10.37,3.64-14.07,13.31-7.96,22.17 c2.98,4.32,7.14,8.05,11.35,11.26c7.27,5.54,15.15,10.26,22.5,15.71c9.83,7.28,16.83,16.83,21.79,28.03 c1.68,3.78,4.36,7.14,6.76,10.57c4.08,5.84,9.82,6.82,16.23,4.95C1285.44,1654.67,1294.87,1643.57,1295.36,1626.84z M672.37,1741.28c8.1,0.1,11.34-2.18,13.89-10.08c0.93-2.89,1.71-5.87,2.19-8.87c3.17-20.02,13.69-35.13,30.72-45.78 c6.36-3.97,13.12-7.3,19.53-11.2c10.79-6.58,17.92-15.75,19.14-28.72c0.45-4.8-0.85-6.38-5.55-5.48 c-5.21,1.01-10.59,2.44-15.21,4.94c-6.36,3.44-12.2,7.9-18.07,12.19c-14.78,10.81-29.39,21.86-44.19,32.64 c-10.21,7.44-21.11,12.93-34.35,12.6c-4.83-0.12-9.79,1.08-14.53,2.28c-6.3,1.6-7.13,3.81-4.07,9.6c1.3,2.47,2.93,4.83,4.74,6.97 c7.32,8.67,15.79,16.15,25.32,22.24C658.03,1738.53,664.79,1741.4,672.37,1741.28z M1421.52,1809.3c-0.21-0.62-0.42-1.25-0.63-1.87 c-3.42-0.48-6.83-1.07-10.26-1.43c-18.19-1.91-36.19-4.69-53.5-10.96c-5.28-1.91-10.64-3.63-16.05-5.11 c-10.9-3-16.61-0.49-22.23,9.28c-5.96,10.36-5.33,21.01-1.77,31.93c2.04,6.28,6.06,10.73,12.18,12.67c5.08,1.61,10.49,3,15.75,3.01 c15.48,0.03,30.25-3.29,43.26-12.21c9.08-6.22,18.06-12.59,26.95-19.08C1417.58,1813.81,1419.44,1811.39,1421.52,1809.3z M1161.16,1430.83c10.29,0.04,21.05-4.43,27.92-11.09c5.38-5.21,5.47-9.79-0.11-15.07c-3.06-2.9-6.52-5.38-9.88-7.95 c-7.71-5.89-13.02-13.19-15.64-22.76c-1.85-6.73-4.56-13.37-7.9-19.5c-2.52-4.63-6.13-9.01-10.18-12.39 c-8.42-7.03-18.24-3.79-21.61,6.66c-2.24,6.95-1.92,13.9,0.88,20.68c3.36,8.12,7.68,15.55,14.61,21.27 c7.78,6.42,11.12,14.91,11.01,24.88c-0.03,2.35-0.12,4.71,0.04,7.05c0.35,5.15,2.16,7.16,7.18,8.01 C1159.09,1430.87,1160.76,1430.8,1161.16,1430.83z M831.48,1694.32c-0.38-8.83-4.9-15.13-12.79-19.29 c-8-4.23-15.31-3.39-21.91,2.88c-3.06,2.9-6.37,5.6-9.1,8.79c-5.61,6.54-5.19,11.02,0.7,17.17c8.14,8.51,18.31,12.64,29.72,14.09 c1.37,0.17,3.54-0.57,4.29-1.63C827,1709.78,831.06,1702.93,831.48,1694.32z"></path> </g> <g> <path d="M3136.95,2418.28c21.86,15.35,43.62,30.85,65.71,45.87c2.53,1.72,7.08,1.73,10.32,0.96c19.04-4.56,37.96-9.58,56.81-16.13 c-5.01-0.26-10.01-0.51-14.94-0.77c-7.24-28.01,15.22-47.29,52.41-44.07c-0.16,18.21-8.88,31.32-26.21,42.55 c23.91-4.05,44.81-7.6,65.71-11.14c0.15,0.57,0.29,1.15,0.44,1.73c-36.68,12.32-73.36,24.65-110.04,36.97 c0.16,1.13,0.33,2.27,0.49,3.4c19.88,0,39.83,1.09,59.62-0.24c34.37-2.32,68.55-4.68,102.07,7.22 c-51.81-10.89-101.22,10.25-152.25,9.71c-0.61,1.14-1.22,2.27-1.83,3.41c30.9,22.79,61.8,45.57,93.18,68.71 c-3.27-1.01-6.41-1.97-10.23-3.14c14.88,21.35,16.09,35.55,5.39,58.24c-24.96-8.66-36.79-32.61-27.79-57.32 c1.25-3.44,5.3-5.87,8.44-9.17c-8.53-5.24-19.76-11.28-30.04-18.63c-17.74-12.69-34.88-26.2-52.29-39.34 c-2.53-1.91-4.93-4.74-7.78-5.33c-31.68-6.67-57.52-24.95-84.09-41.81c-2.99-1.9-6.02-3.72-10.61-6.53 c7.67,20.12,14.7,38.55,21.73,56.96c35-10.33,55.5-0.48,63.42,30.36c-19.5,9.95-38.29,5.26-58.99-13.39 c8.73,19.8,17.46,39.6,26.18,59.39c-0.33,0.32-0.65,0.64-0.98,0.95c-3.43-3.94-7.76-7.4-10.15-11.89 c-16.64-31.2-32.85-62.63-49.26-93.95c-5.81-11.09-12.51-21.78-17.55-33.2c-5.58-12.66-15.92-17.05-28.1-20.22 c-52.45-13.68-99.44-1.31-141.5,30.84c-8.93,6.83-15.13,18.09-20.68,28.34c-17.83,32.91-30.59,67.74-36.48,104.88 c-0.16,1.01,0.16,2.09,0.33,3.89c10.35-4.23,20.15-8.97,30.42-12.29c30.36-9.83,60.32-8.14,88.54,6.92 c23.67,12.63,46.43,26.97,69.71,40.34c25.61,14.71,52.41,26.3,82,30.31c1.65,0.22,3.21,1.09,4.62,2.32 c-28.23,0.15-55.35-5.38-80.94-16.92c-28.36-12.79-56.33-26.46-84.28-40.13c-40.98-20.04-97.48-1.26-118.05,31.42 c-33.54,53.27-67.85,106.12-99.36,160.58c-18.5,31.98-12.69,65.24,5.12,97.17c17.41,31.21,43.13,55.06,66.9,80.83 c23.3,25.26,45.14,51.86,67.86,77.65c4.63,5.26,9.65,10.87,15.68,14.1c36.83,19.75,73.19,40.75,111.43,57.34 c17.6,7.64,39.12,8.4,58.87,8.46c42.89,0.15,77.54,16.25,103.6,49.52c12,15.31,26.51,25.58,43.88,33.2 c27.15,11.9,55.38,22.18,77,43.71c10.9,10.86,22.12,21.72,31.15,34.08c20.76,28.42,50.09,41.84,82.63,50.21 c13.04,3.36,26.31,5.81,39.27,9.53c-38.18-1.31-75.78-5.09-110.86-26.69c11.47,36.78,17.62,74.41,53.27,98.06 c-11.16-1.76-26.61-13.49-34.23-27.98c-8.44-16.05-16.23-32.72-21.91-49.91c-16.26-49.18-51.62-78.46-97.72-97.19 c-24.75-10.06-51.23-16.53-73.13-34.81c2.3,6.69,4.35,13.47,6.95,20.03c2.77,6.98,5.67,13.96,9.2,20.57 c5.57,10.41,11.14,20.9,17.74,30.66c14.07,20.81,23.5,43.12,26.89,68.21c3.39,25.07,15.62,45.05,38.49,57.88 c-0.76,0.86-1.53,1.73-2.29,2.59c-8.81-6.49-18.93-11.8-26.05-19.79c-7.18-8.07-12.35-18.38-16.59-28.47 c-4.38-10.44-6.57-21.79-10.96-32.63c-5.7,35.65-28.31,71.02-1.35,106.47c-10.54-5.46-18.93-18.55-18.11-35.4 c0.98-20.26,4.29-40.44,7.21-60.56c2.5-17.2,2.29-33.74-8.81-48.19c-19.19-24.98-31.91-53.3-43.57-82.27 c-3.58-8.9-8.56-17.26-13.27-25.66c-12.01-21.43-31.28-26.85-53.99-23.42c-10.23,1.55-20.19,5.19-30.43,6.24 c-18.59,1.91-37.3,2.58-54.31,3.67c28.96,18.91,36.36,54.58,50.85,86.04c4.64,10.07,9.09,20.24,13.6,30.37 c11.13,24.95,31.15,40.34,54.99,51.98c22.18,10.83,41.82,25.01,55.51,46.13c2.45,3.78,4.19,8.03,5.24,13.25 c-25.03-41.7-74.17-46.34-110.58-74.4c0.58,36.8,7.33,70.29,22.72,102.1c-15.31-18.95-26.32-39.86-31.23-63.67 c-2.1-10.16-4.61-20.41-5.06-30.69c-1.59-36.36-25.07-64.14-36.58-96.52c-10.49-29.51-33.83-44.57-58.7-59.61 c-17.69-10.7-35.17-17.4-56.33-17.19c-11.34,0.11-22.74-6.42-33.96-9.91c0.49,1.1,1.19,3.78,2.71,5.88 c27.63,38.07,38.62,81.13,37.04,127.5c-1.2,35.54,6.56,68.2,26.59,97.75c7.64,11.27,15.5,22.4,22.69,33.96 c13.8,22.18,26.98,44.74,40.8,66.91c12.84,20.59,26.17,40.88,38.99,60.84c-3.42-2.6-7.98-5.85-12.32-9.38 c-23.75-19.34-38.32-46.19-56.99-69.7c-21.53-27.12-43.57-53.82-65.42-80.74c-3.6,15.8-6.19,31.62-10.92,46.77 c-6.26,20.05-11.64,40.22-8.42,61.16c2.64,17.18,7.65,34,11.5,50.54c-17.71-26.07-27.44-68.72-17.43-106.72 c4-15.17,7.44-30.68,9.02-46.26c1.76-17.33,0.21-34.38-4.3-51.89c-5.93-23.02-7.67-47.25-9.69-71.1 c-1.78-20.98-6.47-39.45-22.51-54.96c-17.83-17.25-33.58-36.65-49.75-54.58c4.63,23.5,9.33,47.64,14.14,71.76 c8.8,44.09-1.4,84.12-27.7,119.69c-28.62,38.71-36.16,81.73-29.49,128.07c2.83,19.67,7.37,39.09,10.51,58.72 c-23.14-46.29-37.23-94.07-22.18-148.56c-27.53,16.13-54.02,30-78.53,46.79c-10.38,7.11-16.79,20.18-24.63,30.82 c-14.92,20.23-28.96,30.3-49.18,33.6c26.81-11.32,38.08-35.43,49.91-59.12c9.72-19.47,27.12-31.05,44.45-42.62 c25.33-16.92,51.03-33.44,70.56-57.42c15.27-18.74,28.29-39.14,22.75-64.53c-3.85-17.63-9.15-35.7-17.81-51.35 c-16.05-29.01-31.65-57.74-34.29-92.87c-15.29,8.98-28.39,18.28-42.76,24.74c-21.84,9.81-32.36,27.42-37.62,49.04 c-5.75,23.61-9.41,47.77-15.92,71.15c-4.47,16.05-10.76,32-18.84,46.55c-15.02,27.08-26.92,55.27-36.13,84.72 c-0.81,2.58-2.13,5-3.21,7.49c-1.06-0.32-2.12-0.64-3.18-0.96c6.53-24.01,9.96-49.47,20.28-71.73 c18.97-40.93,29.15-83.53,34.81-127.75c1.04-8.09,3.11-16.06,5.11-26.13c-26.58,13.99-51.38,27.6-69.69,50.14 c-12.87,15.84-25.01,32.28-37.17,48.68c-1.96,2.64-3.11,6.46-3.22,9.79c-0.81,23.71-6.85,45.97-18.1,66.77 c-13.67,25.27-25.05,51.34-29.93,79.89c-0.33,1.91-1.39,3.69-2.77,5.33c-2.18-31.82,5.35-61.56,17.06-90.77 c6.03-15.04,9.72-31.01,14.92-48.05c-22.19,6.26-42.28,9.54-60.22,17.58c-21.99,9.86-43.01,22.51-62.97,36.13 c-28.64,19.55-57.67,37.38-92.49,43.33c-2.4,0.41-4.84,0.61-7.68,0.04c45.3-12.61,79.01-42.62,114.58-74.21 c-23.77-2.56-45.26-5.51-66.85-7.02c-21.95-1.53-41.93,5.84-60.68,16.99c17.81-17.3,39.53-25.25,63.72-24.91 c20.01,0.28,39.99,2.76,59.97,4.4c10.93,0.9,20.62-1.16,30.81-6.31c14.89-7.52,31.03-12.87,47.03-17.85 c18.33-5.7,31.84-15.97,42.15-32.51c15.52-24.89,31.34-49.99,54.62-68.7c16.45-13.22,33.84-25.28,50.74-37.94 c3.04-2.28,5.76-4.99,8.62-7.5c-0.36-1.11-0.72-2.21-1.08-3.32c-18.25,3.63-36.95,5.8-54.65,11.22 c-26.22,8.03-51.27,20.09-77.68,27.25c-27.25,7.39-47.34,22.17-62.66,45.23c-11.31,17.02-27.07,29.39-43.99,38.7 c16.08-23.91,32.6-48.47,49.11-73.03c-0.32-1.14-0.64-2.27-0.96-3.41c-19.57,2.03-39.61,2.1-58.62,6.53 c-36.5,8.5-72.4,19.56-108.61,29.32c-4.78,1.29-9.91,1.54-14.9,1.7c-31.43,1.02-62.8,2.25-91.91,16.72 c19.78-16.12,42.63-24.49,67.34-27.67c26.43-3.4,51.73-10.01,77.22-23.41c-31.32-7.1-60.74-5.08-90.2-0.86 c-0.15-0.92-0.29-1.83-0.44-2.75c14.14-2.49,28.25-6.77,42.43-7.03c20.59-0.38,41.23,2.28,61.86,3.33 c3.75,0.19,7.9-0.35,11.32-1.82c34.67-14.9,71.07-21.33,108.53-23.59c22.99-1.39,44.82-6.64,65.43-18.42 c24.74-14.13,49.5-29.2,78.26-34.24c17.96-3.15,36.31-4.22,54.13-7.95c33.39-7,58.18-33.96,60.98-65.42 c2.02-22.77-7.36-41.89-21.41-58.91c-16.22-19.65-31.93-39.4-41.69-63.46c-18.97-46.78-15.3-92.77,8.64-135.61 c22.48-40.21,49.38-77.94,74.47-116.67c8.18-12.63,16.99-24.84,24.98-37.58c2.08-3.32,3.83-8.36,2.89-11.85 c-9.47-35.14-27.22-65.56-55.74-88.46c-22.29-17.9-48.36-19.16-74.36-9.91c-23.86,8.5-48.59,16.5-69.92,29.62 c-20.87,12.84-38.43,30.54-45.01,57.26c-10.41,42.3-29.97,80.96-54.85,119.77c0.47-4.55,0.69-6.66,0.93-9.05 c-31.07,15.63-48.31,12.82-67.13-10.66c19.96-19.87,40.64-18.28,72.11,7.44c14.5-38.01,28.63-75.04,42.75-112.08 c-1.11-0.65-2.22-1.3-3.32-1.94c-12.08,9.04-24.17,18.09-36.25,27.13c-1.84,0.91-3.69,1.81-5.53,2.72 c-20.57,6.89-41.07,13.97-61.75,20.51c-4.59,1.45-9.79,0.97-15.03-0.21c5.95-1.86,11.91-3.71,17.86-5.57 c-19.94,0.08-33.89-9.89-45.02-25.27c24.6-19.22,56.74-12.25,69.25,15.53c31.9-15.11,57.11-38.34,83.1-65.66 c-16.42,2.95-29.89,5.37-43.36,7.79c-52.78,9.48-104.34,6.28-155.61-10.86c-28.59-9.55-58.75-14.43-87.27-21.19 c10.93,0,23.64-1.28,35.99,0.27c24.8,3.11,49.51,7.23,74.08,11.88c39.79,7.54,79.05,4.12,118.44-3.12 c40.41-7.43,76.47-25.07,112.19-44.35c18.48-9.97,38.22-17.87,57.92-25.28c35.48-13.35,69.69-7.71,100.41,12.91 c20.65,13.87,38.91,31.3,58.2,47.19c2.92,2.41,5.58,5.12,9.11,8.38c7.22-36.4,2.62-70.56-13.08-102.92 c-25.51-52.56-66.53-90.32-117.94-116.3c-10.36-5.24-25.34-3.54-37.8-1.98c-40,5.01-76.9,19.65-106.02,47.56 c-17.54,16.82-30.03,38.88-45.05,58.37c-11.06,14.35-22.54,28.37-34.35,41.73c16.63-29.3,32.36-59.16,50.13-87.75 c17.5-28.16,44.01-46.64,73.4-61.08c12.76-6.27,25.64-12.3,41.4-19.86c-57.33-10.83-110.98-6.93-165.2,7.18 c3.31,14.91,7.75,30.28-2.34,43.35c-6.5,8.41-15.67,14.77-24.06,22.43c-12.37-21.02-8.71-39.09,12.07-62.14 c-21.6,7.71-42.49,9.33-56.27,28.6c-21.69,30.33-44.69,59.97-76.04,81.19c-16.52,11.18-34.38,20.4-51.77,30.25 c-3.24,1.84-7.16,2.47-11.34,2.72c46.37-28.93,83.73-66.52,114.27-113.7c-57.38,14.7-109.91,45.14-173.64,33.07 c18.3-2.33,34.19-2.13,48.62-6.63c34.05-10.62,67.81-22.47,100.94-35.7c39.5-15.78,78.22-33.51,117.28-50.41 c1.53-0.66,3.02-1.4,3.37-1.56c-21.39-15.09-42.92-30.05-64.19-45.36c-16.27-11.71-31.68-24.68-48.42-35.65 c-34.09-22.33-72.37-31.84-112.72-33.97c-2.11-0.11-4.22-0.37-7.21-0.64c26.25-9.06,47.64-7.53,113.11,7.85 c-31.42-47.21-51.31-101.24-93.96-140.31c25.44,15.68,43.7,38.28,61.4,61.43l-0.36-0.32c19.75,30.14,38.98,60.64,59.64,90.14 c4.97,7.1,14.55,11.12,22.29,16.11c18.27,11.78,35.93,24.87,55.3,34.47c21.64,10.73,44.88,18.27,67.5,26.96 c2.88,1.11,6.42,1.59,9.42,1.07c16.46-2.88,32.86-6.16,50.09-9.46c-10.77-10.23-21-19.96-31.23-29.69 c-1.62-1.9-3.24-3.81-4.86-5.71c-14.03-22.87-28.06-45.74-42.08-68.62c-18.62-30.36-42.07-55.14-77.19-66.76 c16.98-0.28,31.71,5.94,45.64,14.44c24.12,14.73,40.71,36.75,57.06,59.08c13.08,17.86,25.52,36.5,40.76,52.37 c12.67,13.19,29.01,22.87,45.26,33.39c-14.38-25.23-10.88-46.74,9.85-65.61c16.35,14.66,25.02,42.24-1.98,68.26 c8.45,8.84,30.66,16.89,67.59,24.11c-22.24-20.57-22.11-42.34-7.95-65.36c25.09,14.04,30.75,36.17,17.4,65 c28.16,11.28,56.39,22.6,84.01,33.67c0.13,0.48-0.03-1.75-0.99-3.55c-23.64-44.05-41.1-90.38-51.82-139.25 c-0.54-2.46-2.45-5.12-4.5-6.67c-25.1-19-50.33-37.83-75.6-56.62c-1.36-1.01-3.29-1.27-4.95-1.87c-0.84-0.87-1.69-1.74-2.53-2.62 c-22.43-28.7-51.65-46.62-87.53-54.59c-2.8,13.9-10.49,24.99-23.32,31.54c-12.88,6.57-26.32,4.37-39.66,0.8 c4.67-22.23,20-33.42,47.67-37.05c-11.94-1.4-23.86-3.14-35.84-4.12c-35.31-2.89-70.84-4.4-104.94-15.31 c-44.9-14.36-79.79-42.28-106.07-81.55c3.02,2.94,6,5.91,9.06,8.8c3.12,2.96,6.35,5.8,9.48,8.75 c37.67,35.53,82.3,54.92,134.01,58.12c29.32,1.82,58.7,3.2,87.9,6.22c15.79,1.63,31.27,6.29,46.17,9.44 c-9.17-14.97-20.45-29.85-27.98-46.44c-12.84-28.26-24.35-57.24-34.57-86.56c-16.36-46.93-42.72-84.8-88.85-106.57 c-1.57-0.74-2.88-2-3.29-5.2c11.24,5.29,22.83,9.95,33.66,15.98c33.85,18.85,54.38,49.07,69.39,83.64 c9.54,21.98,18.66,44.15,28,66.22c0.78,1.84,1.82,3.58,1.3,2.56c2.29-22.17,4.78-46.44,7.3-70.72c0.43-4.12,0.97-8.23,1.46-12.35 l-0.17,0.15c23.14-52.46,34.69-78.32-24.77-158.85c17.52,4.66,45.3,45.17,57.09,84.36c14.16-23.71,25.35-47.16,31.9-72.6 c6.67-25.89,8.27-52.19,3.13-80.3c8.39,13.08,12.56,47.87,6.19,80.48c-5.09,26.06-14.92,51.2-22,74.63 c12.52-18.78,32.45-21.22,55.05-14.68c-3.7,24.41-31.17,45.16-63.75,30.27c-11.47,23.14-19.28,47.41-23.67,72.87 c-8.8,51.07,0.43,98.23,30.22,140.99c1.19,1.71,2.88,3.07,4.34,4.59l-0.16-0.18c16.66,22.92,40.19,37.23,64.28,50.67 c11.17,6.23,22.93,11.4,35.15,17.41c0.95-18.34,1.4-35.32,2.79-52.23c3.3-40.21,18.37-76.17,40.2-109.7 c2.92-4.48,4.65-10.34,5.09-15.72c3.51-43.02-8.39-82.51-26.03-121.35c-12.17-26.78-20.58-55.27-29.44-83.56c0,3.55,0,7.1,0,10.6 c-27.7,5.51-51.22-17.39-48.75-47.13c21.2-2.92,37.25,6.87,47.83,30.52c-1.61-16.71-3.03-31.52-4.46-46.34 c0.44-0.04,0.87-0.09,1.31-0.13c5.08,18.63,8.71,37.83,15.59,55.77c10.85,28.34,22.56,56.52,36.36,83.51 c15.41,30.15,26.06,61.12,27.25,96.33c2.35-1.58,4.3-2.29,5.34-3.68c22.43-30.18,44.93-60.3,67.03-90.72 c12.59-17.33,13.73-38.2,15.56-58.41c4.54-50.06-11.35-96.07-29.54-141.51c-0.93-2.32-1.88-4.63-2.76-6.97 c-0.36-0.95-0.57-1.95-0.3-3.16c14.89,23.46,23.68,49.55,32.45,75.68c9.05,26.96,10.77,54.68,8.83,82.85 c0.91,0.27,1.82,0.55,2.72,0.82c2.71-8.33,6.52-16.48,7.92-25.03c4.16-25.41,7.19-50.99,10.99-76.46 c3.29-22.02,9.23-43.16,23.1-63.45c-4.39,15.47-9.52,28.83-11.76,42.65c-2.68,16.55-2.64,33.52-4.24,50.26 c-2.24,23.47-4.9,46.9-7.38,70.35c-0.44,1.43-0.88,2.86-1.32,4.29c-9.77,21.02-17.98,42.97-29.69,62.85 c-17.05,28.94-36.6,56.4-55.12,84.47c-3.13,4.75-6.42,9.4-11.14,16.28c3.98-1.79,5.94-2.27,7.39-3.39 c30.39-23.59,65-38.52,101.13-50.87c21.59-7.38,42.42-16.98,63.68-25.36c10.57-4.17,15.73-13.01,20.38-22.38 c16.36-32.93,22.95-68.29,25.42-104.57c1.26-18.5,1.72-37.06,3.02-55.55c6.72,56.78,4.34,112.51-20.07,166.15 c71.35-26.4,97.53-85.1,111.37-152.88c1.25,0.51,2.5,1.03,3.75,1.54c-5.68,22.05-10.98,44.19-17.1,66.12 c-13.03,46.66-47.42,74.46-87.22,97.15c-16.05,9.15-32.47,17.65-48.18,26.15c16,4.52,32.12,8.91,48.12,13.71 c4.75,1.43,10,3.07,13.55,6.25c13.15,11.81,24.23,7.75,34.96-3.23l-0.35,0.27c23.22-2.67,36.5,2.87,51.35,21.44 c-15.46,16.59-40.99,20.37-57.66,4.99c-16.1-14.86-34.93-21.51-54.94-23.73c-25.08-2.79-51.49-6.2-75.66-1.24 c-25.3,5.2-49.42,18.54-72.63,30.98c-31.44,16.84-58.72,39.98-82.68,66.27c-7.42,8.14-10.93,20.73-13.9,31.9 c-12.2,45.84-7.69,91.59,2.76,137.08c2.86,12.45,6.28,24.77,9.96,39.14c4.3-16.52,7.48-30.94,11.84-44.99 c8.3-26.75,25.3-47.06,48.56-62.26c15.59-10.19,31.67-19.66,46.95-30.29c19.87-13.82,39.16-28.46,60.5-44.06 c-8.97,10.88-15.92,22.03-25.41,30.24c-21.37,18.49-43.34,36.43-66.27,52.92c-32.91,23.67-47.05,56.46-50.67,95.28 c-0.56,6.05-0.99,12.17-2.22,18.1c-8.2,39.35,10.6,70.88,29.38,102.43c2.18,3.66,4.52,7.22,6.82,10.79 c0.11,0.17,0.62,0.09,0.54,0.08c4.17-19.76,5.8-40.45,12.93-59.03c30.16-78.57,76.72-142.98,158.9-174.61 c3.06-1.18,6.37-3.63,7.98-6.4c16.8-29.06,33.28-58.31,49.87-87.53c-25.21-14.54-25.51-46.63,1.7-69.56 c15.08,15.77,20.99,33.43,12.16,53.36c79.03-71.6,121.51-162.08,131.53-268.58c0.67,50.36-5.31,99.45-23.35,148.95 c49.24-17.33,89.7-44.22,124.58-79.99c0.72,0.66,1.43,1.32,2.15,1.98c-9.31,10.9-17.9,22.52-28.05,32.56 c-28.4,28.09-61.49,48.89-99.54,61.65c-3.62,1.21-7.97,4.12-9.42,7.38c-17.12,38.6-45.63,69.14-70.57,102.33 c-20.8,27.67-38.77,57.48-57.94,86.38c-0.7,1.05-0.77,2.52-1.45,4.86c54.74-10.65,108.64-21.14,164.32-31.97 c-9.18-13.57-15.68-25.4-10.42-39.77c5.23-14.27,16.08-23.13,28.53-30.72c14.64,23.24,11.27,40.65-11.59,65.5 c19.92-5.46,39.52-11.75,57.01-23.38l-0.35,0.33c18.99-11.69,38.18-23.07,56.89-35.2c8.84-5.73,16.76-12.89,25.1-19.4 c0.42-0.55,0.88-1.06,1.39-1.53c14.65-10.02,29.22-20.16,43.97-30.02c10.53-7.03,21.31-13.67,32.96-18.96 c-44.87,36.54-89.73,73.09-135.66,110.49c45.25-4.92,84.65-23.27,123.99-41.78c0.49,0.82,0.97,1.65,1.46,2.47 c-15.98,10.11-31.45,21.14-48.05,30.11c-28.24,15.27-58.24,23.61-90.84,26.26c-18.94,1.54-37.09,12.81-55.6,19.7 c-1.64,0.16-3.28,0.32-4.92,0.48c-25.81,7.08-51.5,14.65-77.47,21.11c-31.52,7.84-63.34,14.43-94.89,22.14 c-45.13,11.03-82.5,34.74-105.2,66.81c9.92-3.68,18.31-7.03,26.86-9.94c25.61-8.7,52.17-9.83,78.54-6.54 c41.1,5.13,81.98,12.05,122.97,18.12c2.73,0.4,5.56,0.05,8.45,0.05c-6.97-35.22,3.87-51.48,39.02-59.23c6.58,25.1-1,41.84-28.03,58 c50.12-9.14,81.39-46.71,122.02-67.26l-0.36,0.36c25.19-8.98,50.3-18.21,75.63-26.8c8.66-2.94,17.88-4.24,26.91-5.73 c-22.7,8.36-46.22,15-67.87,25.52c-25.58,12.43-49.82,27.74-74.12,42.66c-19.64,12.06-38.49,25.4-57.18,37.84 c86.9,6.23,171.73-6.16,250.34-51.22c0.53,1.34,1.05,2.68,1.58,4.03c-21.09,10.47-41.43,23.03-63.44,30.91 c-29.71,10.65-60.71,17.71-91.15,26.31l0.25-0.16c-20.33,1.47-40.63,3.44-60.98,4.32c-54.76,2.39-108.17-9.21-162.11-15.72 c-38.61-4.66-77.84-10.53-115.84,3.41c-38.12,13.98-71.32,35.46-85.67,75.48c-6.87,19.15-8.76,40.49-10.34,61.04 c-3.82,49.94,2.64,99.31,11.32,148.42c1.67,9.45,3.3,18.91,4.99,28.35c0.04,0.21,0.61,0.31,0.24,0.14 c14.09-25.92,26.91-52.57,42.48-77.51c32.43-51.94,77.82-86.58,139.68-95.41c21.49-3.07,43.5-2.41,65.28-3.46l-0.37-0.29 c19.12,1.99,38.24,3.99,58.39,6.09c-1.35-15.24-0.13-28.32,11.07-37.71c11.6-9.72,25.38-12.37,40.08-11.22 c4.03,23.42-10.98,40.32-44.44,48.57c25.61,0,48.96,0,72.75,0c-8.43-34.61,5.77-55.23,39.16-59.36 c6.56,15.97,0.57,40.09-20.52,54.59c9.89-3.85,20.04-7.14,29.62-11.64c32.37-15.23,64.23-31.58,96.91-46.1 c16.48-7.32,34.31-11.62,51.52-17.28c0.29,0.83,0.58,1.66,0.87,2.49c-6.66,3.08-13.33,6.15-19.99,9.23l0.33-0.34 c-24.64,12.95-49.46,25.58-73.88,38.94c-17.88,9.79-35.11,20.78-52.87,30.8c-21.1,11.9-43.75,19.38-67.95,21.78 c0.11,0.97-0.04,2.07,0.28,2.22c36.07,17.31,71.62,35.86,108.49,51.29c21.53,9.01,45.13,13.11,67.87,19.15 c2.03,0.54,5.19-0.16,6.81-1.51c25.07-20.82,53.43-5.08,65.67,20.3c-20.83,14.32-46.54,10.1-61.99-9.71 c-2.49-3.19-6.92-6.96-10.43-6.94c-45.48,0.33-87.08-14.28-128.36-31.26c-32.34-13.3-65.34-25-98.05-37.39 c-0.99-0.38-2.08-0.61-3.14-0.72c-61.53-5.98-123.17-11.99-180.12,20.73c-21.07,12.11-37.75,29.27-53.03,51.3 c10.68-3.92,18.99-7.48,27.6-10.05c51.19-15.23,99.73-8.26,145.88,17.96c3.04,1.73,6.29,3.08,9.44,4.61 C3134.18,2416.88,3135.57,2417.58,3136.95,2418.28z"></path> <path d="M2478.64,2530.03c-27.12,9.14-42.74,0.82-60.7-32.01c-13.77,13.91-30.15,17.32-48.74,12.69 c6.46-31.06,29.89-46.04,58.64-37.27c-1.7,5.95-3.41,11.93-5.48,19.14C2451.83,2488.77,2470.66,2500.92,2478.64,2530.03z"></path> <path d="M3136.95,2418.28c-1.39-0.7-2.77-1.4-4.16-2.1c6.5-30.46,31.26-39.56,65.48-24.06c-7.51,22.27-28.66,34.12-50.98,28.58 C3143.86,2419.84,3140.4,2419.08,3136.95,2418.28z"></path> <path d="M3193.28,2041.59c1.64-0.16,3.28-0.32,4.92-0.48c19.19-4.86,36.13,4.8,49.37,28.15c-23.82,17.52-52.26,9.87-66.88-18.46 C3184.83,2047.76,3189.05,2044.68,3193.28,2041.59z"></path> <path d="M3242.41,2575.56c-22.78-15.11-27.44-44.43-11.57-65.1c4.02-5.23,7.18-4.17,11.49-0.94c14.98,11.19,19.1,28.02,10.74,47.76 C3250.35,2563.71,3246.03,2569.46,3242.41,2575.56z"></path> <path d="M2900.76,2019.74c20.09-24.33,46.95-22.71,70.05,3.71C2947.76,2045.25,2921.29,2044.06,2900.76,2019.74z"></path> <path d="M3121.27,2374.01c-26.73,8.77-51.96-4.37-58.97-28.79c-1.66-5.79-0.73-9.12,5.95-10.88c16.2-4.27,31.15,0.21,40.32,14.28 C3113.55,2356.26,3116.85,2365.01,3121.27,2374.01z"></path> <path d="M3360.48,2545.01c-33.54-4.07-46.92-16.39-50.36-42.63c-0.94-7.18,1.36-9.67,8.29-9.99c16.05-0.73,29.55,7.14,35.18,22.73 C3356.87,2524.2,3358.04,2534.05,3360.48,2545.01z"></path> <path d="M3440.22,2219.61c-14.63-31.03,9.54-53.08,37.99-57.2C3488.06,2188.6,3470.59,2215.34,3440.22,2219.61z"></path> <path d="M3318.25,2085.78c23.96-24.2,53.8-8.3,66.52,18.02C3361.28,2120.69,3333.92,2113.47,3318.25,2085.78z"></path> <path d="M3325.95,1942.84c-0.51,0.47-0.97,0.98-1.39,1.53c-27.58-14.01-29.21-44.02-3.82-70.04c20.71,17.39,24.15,40.62,9.22,62.31 C3328.58,1938.66,3327.29,1940.77,3325.95,1942.84z"></path> <path d="M3124.3,2035.09c-19.53-24.54-12.36-49.18,18.76-66.46C3161.32,1991.5,3150.95,2023.89,3124.3,2035.09z"></path> <path d="M2865.86,2056.43c20.07-23.27,47.36-20.38,68.62,6.73C2914.14,2084.53,2883.5,2081.77,2865.86,2056.43z"></path> <path d="M3433.94,2186.97c-28.16,9.24-54.04-7.08-58.55-36.31C3399.79,2135.33,3423.99,2150.1,3433.94,2186.97z"></path> <path d="M3357.09,2436.64c21.82-20.86,51.34-12.72,66.15,18.23C3400.33,2472.28,3368.18,2463.42,3357.09,2436.64z"></path> <path d="M3440.79,2053.37c11.61,24.83-1.82,54.9-26.11,60.67c-2.58,0.61-7.89-2.33-9.04-4.9c-6.77-15.28-2.16-32.16,11.4-41.77 C3424.47,2062.1,3432.76,2058.05,3440.79,2053.37z"></path> <path d="M2884.19,1944.25c18.74,22.7,18.28,45.82,0.27,64.61c-5.34,5.56-9.13,6.34-14.47-0.25c-12.24-15.11-11.2-35.52,3.54-52.7 C2876.78,1952.13,2880.26,1948.54,2884.19,1944.25z"></path> <path d="M3483.83,2147.26c-24.98,16.19-50.62,9.17-66.33-18.15C3438.17,2107.69,3471.26,2116.74,3483.83,2147.26z"></path> <path d="M3324.33,2128.78c-23.96,19.39-48.76,16.67-68.53-7.09C3269.77,2096.58,3302.34,2099.56,3324.33,2128.78z"></path> <path d="M3285.77,1784.49c19.06-25.27,48.7-24.13,69.2,2.2C3335.36,1808.61,3307.98,1807.95,3285.77,1784.49z"></path> <path d="M3414.24,2540.3c-30.46,0.42-50.67-20.25-47.98-49.54C3395.12,2483.27,3416.4,2504.87,3414.24,2540.3z"></path> <path d="M3383.11,2194.81c8.28,26.11-1.33,47.82-25.16,58.06c-7.09,3.05-10.05,1.46-12.33-5.84 C3338.04,2222.83,3355.56,2198.09,3383.11,2194.81z"></path> <path d="M3122.09,1680.48c28.41,1.38,45.94,19.99,45.27,46.25c-0.19,7.22-2.76,9.36-9.73,8.57c-22.06-2.49-34.41-16.9-35.52-42.14 C3121.93,1688.96,3122.09,1684.74,3122.09,1680.48z"></path> <path d="M3430.24,2235.01c33.8,2.47,49.02,21.14,43.76,53.67c-28.78,2.07-51.26-25.86-43.44-54 C3430.57,2234.66,3430.24,2235.01,3430.24,2235.01z"></path> <path d="M2956.55,1927.87c6.52,30.11-9.07,52.7-38.59,56.78C2904.06,1958.88,2922.7,1930.94,2956.55,1927.87z"></path> <path d="M2958.98,2634.61c-22.88,14.85-54.9,5.21-63.72-18.68c-0.78-2.12,1.85-7.18,4.23-8.54c17.5-9.96,33.65-6.39,48.4,10.64 C2952.21,2623.04,2955.33,2629.09,2958.98,2634.61z"></path> <path d="M2836.71,1981.15c19.96,23.1,16.59,50.69-7.81,68.29C2804.38,2032.56,2807.7,2001.57,2836.71,1981.15z"></path> <path d="M3381.42,2335.95c-29.57,9.17-55.9-7.51-58.61-36.25C3352.43,2284.52,3374.37,2305.9,3381.42,2335.95z"></path> <path d="M3285.88,2168.74c25.79-1.96,38.78,9.02,48.63,41.13c-27.48,10.47-52.74-5.02-58.71-36.53c3.35-1.54,6.84-3.15,10.33-4.76 C3286.13,2168.58,3285.88,2168.74,3285.88,2168.74z"></path> <path d="M3451.1,1917.8c-0.16,29.9-25.69,51.01-52.77,44.26C3392.68,1933.11,3415.65,1914.9,3451.1,1917.8z"></path> <path d="M3013.31,2160.86c11.8-5.27,23.31-4.43,34.33,2.59c11.3,7.19,19.75,25.22,18.88,39.67 C3041.46,2210.34,3013.29,2190.43,3013.31,2160.86z"></path> <path d="M3147.93,1790.94c-29.57,3.36-48.05-20.66-42.03-54.61C3136.34,1738.38,3156.05,1764,3147.93,1790.94z"></path> <path d="M3189.7,2587.58c30.92-5.86,52.37,17,47.44,49.69C3206.57,2636.93,3187.21,2616.93,3189.7,2587.58z"></path> <path d="M3055.69,2608.43c15.35-26.8,46.36-29.94,68.63-7.58C3106.75,2625.62,3077.23,2629.07,3055.69,2608.43z"></path> <path d="M3352.33,2572.6c24.29-18.87,47.84-11.8,65.92,19.24C3398.1,2609.53,3361.33,2600.33,3352.33,2572.6z"></path> <path d="M3159.04,2216.84c-28.76,5.63-53.79-14.21-53.5-42.4C3129.15,2162.28,3157.23,2180.24,3159.04,2216.84z"></path> <path d="M3242.93,1998.63c-15.06-4.18-26.77-20.87-22.83-36.07c3.1-11.97,9.63-23.05,14.95-35.24 c22.21,17.61,26.32,42.35,12.68,62.79c-1.89,2.83-3.45,5.89-5.16,8.85C3242.57,1998.96,3242.93,1998.63,3242.93,1998.63z"></path> <path d="M2815.05,2124.16c6.48,31.9-5.91,52.29-35.37,59.15C2763.39,2159,2780.24,2130.28,2815.05,2124.16z"></path> <path d="M3433.01,2296.51c-24.83,16.78-54.03,8.89-66.06-17.85C3389.55,2253.26,3420.23,2270.67,3433.01,2296.51z"></path> <path d="M3090.87,2430.64c20.11,21.98,12.15,50.34-18.52,65.97C3053.07,2469.39,3068.27,2437.46,3090.87,2430.64z"></path> <path d="M3121.4,2098.13c-2.22,28.49-28.84,46.22-56.6,37.69C3060.81,2102.89,3094.87,2089.49,3121.4,2098.13z"></path> <path d="M3161.67,2721.78c-27.77-9.97-39.75-30.67-33.66-55.04c2.02-8.08,5.56-8.42,12.25-6.05c21.98,7.77,31.25,28.62,23.86,54.68 C3163.55,2717.38,3162.62,2719.31,3161.67,2721.78z"></path> <path d="M3095.68,2713.04c-26.3-11.12-36.8-35.47-27.15-60.15c2.37-6.05,5.31-7.21,11.32-4.37c16.52,7.79,24.8,21.49,22.15,39.88 C3100.81,2696.69,3097.87,2704.73,3095.68,2713.04z"></path> <path d="M3048.33,2027.56c0.01-31.16,24.04-48.07,55.89-39.92C3103.01,2016.66,3079.24,2033.94,3048.33,2027.56z"></path> <path d="M3012.98,2681.62c-21.76-22.14-24.77-43.2-10.86-63.14c4.92-7.05,8.99-8.78,15.91-1.96c11.71,11.55,15.32,26.58,7.98,43.25 C3022.78,2667.11,3017.79,2673.68,3012.98,2681.62z"></path> <path d="M2859.09,1951.73c-25.87,13.83-46.63,9.55-62.92-12.01c-4.39-5.81-3.49-8.97,2.56-12.6 C2820.65,1913.95,2845.86,1923.85,2859.09,1951.73z"></path> <path d="M3371.88,1908.5c-23.35-20.3-20.32-45.96,7.52-68.71C3400.59,1857.89,3397.49,1888.11,3371.88,1908.5z"></path> <path d="M2959.77,1877.99c29.12,0.93,42,31.97,27.48,62.44C2959.81,1934.09,2946.99,1904.95,2959.77,1877.99z"></path> <path d="M3128.27,1913.41c21.51-20.69,49.43-13.06,66.24,18.12C3170.56,1948.75,3139.82,1940.35,3128.27,1913.41z"></path> <path d="M3305.82,1826.91c-22.71,21.77-48.33,21.05-68.82-1.46C3249.63,1799.8,3281.95,1800.2,3305.82,1826.91z"></path> <path d="M3099.17,2557.55c-15.87-27.81-9.12-52.52,17.91-67.41C3138.18,2510.62,3130.93,2538.66,3099.17,2557.55z"></path> <path d="M3242.86,2405.64c-29.03-5.54-43.64-31.19-34.35-59.1C3237.14,2344.21,3252.93,2370.96,3242.86,2405.64z"></path> <path d="M3285.54,2084.86c-5.46,1.21-10.93,2.42-16.34,3.61c-13.68-25.22,0.01-50.52,36.52-58.74 c5.95,23.15,0.69,38.34-18.02,52.31c-1.04,0.78-1.68,2.09-2.51,3.16C3285.18,2085.22,3285.54,2084.86,3285.54,2084.86z"></path> <path d="M3052,2253.33c2.37,27.89-13.57,47.82-39.54,51.62c-7.35,1.08-8.57-1.72-9.04-7.77c-1.76-22.42,12.25-39.12,36.2-42.62 C3043.5,2254,3047.43,2253.78,3052,2253.33z"></path> <path d="M3424.62,1883.7c-4.74-30.2,17.68-48.48,53.08-44C3476.9,1869.11,3455.51,1887.1,3424.62,1883.7z"></path> <path d="M3259.83,1876.05c-27.1,11.33-50.1,3.99-62.4-17.79c-3.84-6.8-3.24-10.82,4.54-13.89c16.33-6.43,29.99-3.82,42.53,10.09 C3250.11,1860.68,3254.31,1868.16,3259.83,1876.05z"></path> <path d="M3224,1665.73c7.92,30.72-5.58,53.73-34.74,59.22C3172.46,1698.8,3191.86,1671.96,3224,1665.73z"></path> <path d="M3017.25,2574.82c-3.72-29.67,17.96-46.25,54.03-41.9C3071.72,2559.25,3048.36,2581.61,3017.25,2574.82z"></path> <path d="M3151.07,2554.64c26.53,15.27,28.77,44.05,5.72,68.58C3132.68,2607.38,3129.83,2576.29,3151.07,2554.64z"></path> <path d="M2934.79,1913.73c-27.69,15.72-52.99,8.77-66.54-17.7C2885.74,1873.78,2915.83,1881.58,2934.79,1913.73z"></path> <path d="M2999.55,2479.7c-28.71,13.27-51.65,4.81-64.63-23.43C2955.21,2435.81,2986.01,2446.66,2999.55,2479.7z"></path> <path d="M3479.99,2498.33c-26.73,16.7-52.78,10.59-67.25-15.24C3436.37,2455.86,3467.41,2474.69,3479.99,2498.33z"></path> <path d="M3532.89,2225.43c-18.98,22.49-49.67,22.56-68.5,0.16C3478.47,2199.92,3510.04,2199.85,3532.89,2225.43z"></path> <path d="M3408.85,2045.39c-2-31.06,20.27-48.97,53.24-43.41C3461.48,2031.82,3437.55,2051.64,3408.85,2045.39z"></path> <path d="M2956.67,2220.45c-26.93,16.83-49.57,13.7-66.02-6.22c-4.7-5.69-3.8-8.88,1.82-12.81c12.34-8.64,25.57-10.34,38.24-2.71 C2939.91,2204.24,2947.44,2212.55,2956.67,2220.45z"></path> <path d="M3190.39,2182.44c28.78-0.87,43.88,27.8,32.06,60.84C3196.39,2239.09,3177.99,2207.39,3190.39,2182.44z"></path> <path d="M3375.97,2049.27c-31.78,7.34-54.79-10.24-57.27-38.11C3347.51,1999.94,3371.99,2015.93,3375.97,2049.27z"></path> <path d="M2768.69,2015.15c24.4,16.61,27.3,48.43,6.25,68.71C2748.04,2069.7,2745.55,2042.34,2768.69,2015.15z"></path> <path d="M3115.17,2297.63c-0.54-10.66-3.65-22-1.05-31.83c4.62-17.48,20.68-23.83,36.12-30.13c9.93,30.65-3.61,53.61-35.43,61.68 C3114.81,2297.35,3115.17,2297.63,3115.17,2297.63z"></path> <path d="M3437.52,2335c7.6,28.54-15.62,55.04-41.63,54.05C3383.29,2363.07,3402.95,2337.53,3437.52,2335z"></path> <path d="M3037.32,1869.87c-11.79,1.64-23.67,5.18-35.12-1.14c2.83-30.47,28.18-44.58,60.33-33.52 c-2.87,15.78-12.78,26.34-25.54,34.91C3036.97,1870.14,3037.32,1869.87,3037.32,1869.87z"></path> <path d="M3228.6,2673.25c-27.26,15.62-51.38,8.56-66.67-19.52C3187.46,2635.92,3213.5,2643.55,3228.6,2673.25z"></path> <path d="M3345.28,1713.59c-5.03,32.99-26.04,49.12-54.69,42.63C3288.31,1728.07,3312.53,1708.92,3345.28,1713.59z"></path> <path d="M3517.14,2048.21c-0.34,32.06-27.05,48.91-51.52,44.17C3458.6,2065.7,3484.92,2043.13,3517.14,2048.21z"></path> <path d="M2514.54,2214.55c1.62,1.9,3.24,3.81,4.86,5.71c-22.07,23.43-50.04,23.29-70.07-0.35c14.6-16.75,36.87-20.82,55.8-10.24 C2508.21,2211.39,2511.4,2212.92,2514.54,2214.55z"></path> <path d="M2505.17,2642.59c25.9,19.13,29.91,42.33,12.2,67.95C2491.79,2698.58,2485.55,2665.24,2505.17,2642.59z"></path> <path d="M2209.28,2020.98c-27.02,13.27-50.83,2.86-63.63-27.42C2173.08,1980.62,2198.06,1991.13,2209.28,2020.98z"></path> <path d="M2500.92,2074.01c20.53,25.34,18.17,52.13-6.01,68.41C2473.63,2119.98,2476.36,2088.89,2500.92,2074.01z"></path> <path d="M2612.53,2087.93c0.84,0.87,1.69,1.74,2.53,2.62c-9.25,26.77-35.85,35.23-65.16,20.72 C2555.77,2091.79,2579.9,2073.9,2612.53,2087.93z"></path> <path d="M2801.35,1569.83c-28.28-11.06-37.42-36.12-23.47-64.32C2805.7,1513.14,2816.42,1546.78,2801.35,1569.83z"></path> <path d="M2828.31,1603.92c-12.01-27.54,0.17-52.72,29.33-61.75C2870.49,1559.87,2861.06,1595.67,2828.31,1603.92z"></path> <path d="M2722.71,1613.49c7.29,33.06-6.59,57.22-33.99,60.01C2678.7,1645.09,2692.07,1620.97,2722.71,1613.49z"></path> <path d="M2341.66,1807.34c14.69-27.37,40.21-34.53,66.57-18.69C2395.56,1818.71,2365.25,1822.3,2341.66,1807.34z"></path> <path d="M2701.13,1972.31c-31.01-5.59-45.54-25.59-40.06-55.12C2689.04,1915.68,2712.69,1948.22,2701.13,1972.31z"></path> <path d="M2234.19,2044.47c-18.75,26.32-42.09,30.67-67.5,13.08C2178.54,2031.58,2211.35,2024.96,2234.19,2044.47z"></path> <path d="M2271.84,2096.46c-25.07,19.13-48.58,15.74-68.15-9.29C2225.49,2066.54,2256.44,2070.55,2271.84,2096.46z"></path> <path d="M2171.46,2102.37c30.09-2.79,51.3,17.12,50.46,46.51C2194.33,2154.73,2172.2,2134.6,2171.46,2102.37z"></path> <path d="M2535.54,2119.01c20.65,24.88,17.89,51.46-6.72,68.75C2507.9,2166.94,2510.35,2139.44,2535.54,2119.01z"></path> <path d="M2408.24,2218.85c-20.04-24.18-16.42-51.38,8.5-68.56C2436.36,2171.88,2432.84,2201.71,2408.24,2218.85z"></path> <path d="M2387.63,1848.53c17.43-26.78,47.03-32.6,67.47-13.92C2441.95,1860.32,2415.37,1865.97,2387.63,1848.53z"></path> <path d="M2247.4,2509.14c-18.67-24.91-9.02-54.44,15.22-66.81C2281.69,2461.93,2274.61,2493,2247.4,2509.14z"></path> <path d="M2381.83,2637.93c-25.22,21.34-51.96,19.76-69.19-3.65C2333.38,2612.54,2361.25,2613.76,2381.83,2637.93z"></path> <path d="M2813.8,1604.97c-26.39,13.34-53.4,1.5-62.32-27.3C2777.72,1564.31,2806.07,1576.72,2813.8,1604.97z"></path> <path d="M2463.67,2618.25c1.84-0.91,3.69-1.81,5.53-2.72c2.91,2.3,7.16,4,8.51,7c7.96,17.69,3,37.6-12.07,50.52 c-3.5,3-7.47,5.45-11.19,8.13c-13.88-17.18-10.55-41.15,0.87-53.43C2458.2,2624.67,2460.89,2621.43,2463.67,2618.25z"></path> <path d="M2888.76,1633c-1.82-29.03,21.01-49.04,51.16-44.84C2939.75,1618.31,2915.99,1639.14,2888.76,1633z"></path> <path d="M2286.74,2090.96c-1.34-4.31-2.82-8.57-4-12.93c-5.62-20.88,4.1-35.86,18.62-49.15c21,20.21,18.18,50.92-6.26,68.64 c-2.84-2.24-5.77-4.55-8.71-6.88C2286.38,2090.64,2286.74,2090.96,2286.74,2090.96z"></path> <path d="M3243.59,1714.32c22.11,15.73,28.45,44.78,6.36,68.3C3224.48,1767.95,3223.34,1734.94,3243.59,1714.32z"></path> <path d="M2195.14,1944.04c22.55-22.4,47.22-22.57,68.84-0.95C2246.04,1968.34,2214.24,1965.55,2195.14,1944.04z"></path> <path d="M3178.39,1684.36c-24.86-19.47-26.94-46.83-5.9-68.97C3196.38,1630.84,3199,1659.41,3178.39,1684.36z"></path> <path d="M2573.04,2540.99c18,24.77,5.84,53.51-19.35,65.27C2536.77,2582.53,2546.12,2550.98,2573.04,2540.99z"></path> <path d="M2238.39,1995.4c17.51-25.7,46.66-29.92,68.11-10.33C2292.5,2010.45,2266.82,2014.52,2238.39,1995.4z"></path> <path d="M3130.52,1580.92c8.98,27.2-5.12,54.22-34.19,59.17C3085.1,1612.8,3098.84,1588.64,3130.52,1580.92z"></path> <path d="M2589.43,2021.45c-3.18-8.63-7.7-17.03-9.23-25.94c-2.85-16.58,6.28-31.35,24.84-43.78c14.69,17.12,13.13,43.64-3.63,59.33 c-3.85,3.6-8.12,6.76-12.17,10.16C2589.27,2021.27,2589.43,2021.45,2589.43,2021.45z"></path> <path d="M2390.84,2059.58c8.22-29.48,36.91-42.89,61.95-29.57C2446.57,2057.62,2422.87,2069.13,2390.84,2059.58z"></path> <path d="M2435.72,2111.07c-24.8,20.73-47.66,19.24-68.68-4C2385.82,2084.84,2419.54,2086.64,2435.72,2111.07z"></path> <path d="M2337.73,1978.87c-17.48-27.53-11.93-52.77,14.47-67.92C2370.23,1934.35,2364.8,1960.79,2337.73,1978.87z"></path> <path d="M2427.41,1909.14c23.14-17.78,54.56-10.14,66.21,16.1C2471.32,1943.2,2442.3,1936.14,2427.41,1909.14z"></path> <path d="M2184.57,2219.54c0.34-30.9,19.89-49.87,49.05-48.1C2239.49,2199.32,2213.41,2223.3,2184.57,2219.54z"></path> <path d="M2587.46,1876.65c13.16,30.07,4.92,52.97-23.15,65.61C2548.67,1916.55,2557,1892.42,2587.46,1876.65z"></path> <path d="M2195.68,2164.26c-15.92,26.44-42.67,31.54-67.44,13.36C2141.71,2151.95,2170.12,2146.08,2195.68,2164.26z"></path> <path d="M2255.34,2603.9c-3.57-28.03,20.09-50.54,49.07-46.66C2308.14,2584.96,2285.12,2606.84,2255.34,2603.9z"></path> <path d="M2628.17,1735.84c30.66-12.85,52.47-4.63,65.18,23.99C2672.64,1773.57,2642.49,1768.71,2628.17,1735.84z"></path> <path d="M2473.32,2492.4c-18.16-24.87-13.7-51.41,10.88-67.79C2504.95,2443.07,2500.06,2475.02,2473.32,2492.4z"></path> <path d="M2447.02,2441.39c-20.04,23.02-48.22,22.6-68.88-0.43C2398.23,2418.58,2427.79,2418.57,2447.02,2441.39z"></path> <path d="M2474.97,2699.3c26.38,17.61,30.91,44.28,11.92,67.91C2461.41,2752.39,2455.97,2722.98,2474.97,2699.3z"></path> <path d="M2636.39,2578.07c-21.71-20.04-19.87-49.9,3.7-68.69C2661.76,2529.65,2660.53,2556.04,2636.39,2578.07z"></path> <path d="M2856.93,2311.75c3.25-29.94,32.74-44.45,58.06-34.72C2909.02,2306.99,2881.03,2323.73,2856.93,2311.75z"></path> <path d="M2172.29,2378.15c-4.29,31.49-23.56,45.86-54.65,41.37C2121.19,2388.06,2144.78,2369.89,2172.29,2378.15z"></path> <path d="M2301.81,2490.14c29.3-2.59,51.16,18.89,49.23,47.6C2321.11,2543.32,2300.68,2519.01,2301.81,2490.14z"></path> <path d="M2586.42,2483.86c-28.22,9.1-54.82-7.48-57.74-36.01C2559.86,2440.19,2584.19,2455.37,2586.42,2483.86z"></path> <path d="M2233.7,2232.84c-3.46-31.28,14.57-52.87,43.43-52.98C2283.15,2208.85,2265.1,2231.14,2233.7,2232.84z"></path> <path d="M2454.18,1726.15c22.57-21.52,49.44-20.54,69.06,2.52C2503.59,1751.08,2473.44,1749.98,2454.18,1726.15z"></path> <path d="M2424.14,1995.92c-26.69-12.85-33.33-37.66-17.84-66.66C2430.09,1939.7,2443.75,1970.22,2424.14,1995.92z"></path> <path d="M2986.94,1669.27c-29.2,1.04-48.22-20.75-44.94-50.68C2969.13,1614.86,2991.76,1640.01,2986.94,1669.27z"></path> <path d="M2247.28,1908.08c-30.52-6.73-45.13-32-34.82-59.34C2242.81,1856.1,2257.35,1880.43,2247.28,1908.08z"></path> <path d="M2144.11,2366.99c-27.96,13.6-53.3,3.86-63.93-24.01C2107.14,2326.12,2137.52,2342.52,2144.11,2366.99z"></path> <path d="M2511.94,2437.16c-18.64-26.81-14.06-53.36,11.4-68.13C2542.59,2391.25,2538.29,2418.38,2511.94,2437.16z"></path> <path d="M2638.73,1971.09c32.09,1.86,49.78,21.47,45.98,50.34C2656.89,2025.02,2635.94,2002.51,2638.73,1971.09z"></path> <path d="M3040.21,1799.21c15.44-26.74,37.78-32.01,66.7-16.28C3097.16,1809.32,3064.7,1817.48,3040.21,1799.21z"></path> <path d="M2787.65,1746.57c27.31,9.1,38.07,35.93,25.4,63.33C2783.14,1803.23,2774.19,1770.42,2787.65,1746.57z"></path> <path d="M2222.32,2386.74c22.75-18.63,54.15-12.45,66.83,13.16C2266.92,2418.6,2236.46,2412.6,2222.32,2386.74z"></path> <path d="M2676.91,2390.73c24.02-20.89,50.09-18.87,68.6,4.71C2728.84,2417.09,2700.04,2415.31,2676.91,2390.73z"></path> <path d="M2873.09,1747.43c0.44-1.43,0.88-2.86,1.32-4.29c11.58-22.76,30.16-30.76,54.81-25.96c-0.79,26.61-27.1,47.04-52.17,39.89 C2874.98,1756.48,2874.37,1750.77,2873.09,1747.43z"></path> <path d="M2219.99,2455.68c-19.18,33.91-37.84,43.81-61.91,32.87C2163.34,2459.7,2191.29,2444.86,2219.99,2455.68z"></path> <path d="M2703.51,1728.77c-9.97-29.22,0.7-49.85,31.21-61.29C2748.74,1691.32,2733.92,1721.02,2703.51,1728.77z"></path> <path d="M2170,2428.8c-3.65-30.07,15.35-51.77,44.55-51.63C2221.79,2403.83,2201,2428.33,2170,2428.8z"></path> <path d="M2207.03,2535.13c-19.78,20.82-49.67,17.6-67.91-7.3C2158.3,2507.63,2191.07,2511.15,2207.03,2535.13z"></path> <path d="M2451.66,1951.69c30.51,1.27,49.05,22.16,45.36,50.41C2469.53,2006.67,2447.77,1982.88,2451.66,1951.69z"></path> <path d="M2676.26,1638.95c-24.05-18.01-26.19-45.07-5.39-68.26C2695.01,1584.75,2697.67,1618.34,2676.26,1638.95z"></path> <path d="M2358.7,2307.36c-24.83,15.91-52.63,7.32-65.17-19.63C2315.92,2270.7,2348.06,2280.11,2358.7,2307.36z"></path> <path d="M2715.67,1816.87c-20.79,19.72-51.03,14.79-67.24-10.97C2671.04,1786.58,2701.62,1791.57,2715.67,1816.87z"></path> <path d="M2197.19,2324.73c27.78-14.3,53.4-5.36,65.46,22.49C2238.49,2363.04,2212.47,2354.37,2197.19,2324.73z"></path> <path d="M2399.23,2406.67c22.96-22.48,49.11-22.27,68.75,0.07C2452.42,2429.74,2423.25,2429.92,2399.23,2406.67z"></path> <path d="M2840.03,1731.05c-27.85,11.37-49.45,0.49-61.68-30.4C2803.45,1687.61,2831.12,1701.01,2840.03,1731.05z"></path> <path d="M2939.88,1506.65c11.31,28.84-4.59,56.3-30.79,61.2C2895.72,1541.78,2911.44,1513.87,2939.88,1506.65z"></path> <path d="M2369.77,2697.55c-5.5-30.76,10.99-52.8,41.02-54.81C2416.5,2673.15,2399.45,2695.93,2369.77,2697.55z"></path> <path d="M2535.86,1859.53c-2.69-0.81-5.36-1.75-8.08-2.41c-26.29-6.36-38.96-26.81-33.37-53.92c28.79,0.09,47.42,25.55,41.29,56.47 C2535.69,1859.68,2535.86,1859.53,2535.86,1859.53z"></path> <path d="M2746.19,1810.53c-20.45-22.16-17.53-49.15,7.35-68.11C2774.38,1761.98,2770.71,1796.02,2746.19,1810.53z"></path> <path d="M2501.71,1692.64c-29.68-0.38-47.45-21.53-44.1-51.79C2486.46,1639.68,2505.95,1662.18,2501.71,1692.64z"></path> <path d="M2337.75,2108.76c27.02,16.32,32.95,43.5,15.28,67.77C2326.81,2163.82,2321.08,2139.23,2337.75,2108.76z"></path> <path d="M2861.82,1789.75c16.23-24.58,44.37-27.31,67.81-6.59C2911.58,1807.52,2880.18,1810.57,2861.82,1789.75z"></path> <path d="M2186.37,2580.7c7.69-29.63,29.3-41.93,59.27-33.73C2243.44,2577.91,2210.45,2591.23,2186.37,2580.7z"></path> <path d="M2501.22,2297.93c12.92,28.92,2.74,53.52-26.03,64.13C2461.48,2336.59,2471.82,2310.56,2501.22,2297.93z"></path> <path d="M2305.35,2418.26c17.63,23.57,11.44,49.41-15.49,66.91C2271.4,2464.89,2278.5,2433.21,2305.35,2418.26z"></path> <path d="M2317.79,1736.28c29.56-10.13,56.13,3.99,61.31,31.87C2351.25,1779.5,2330.19,1768.71,2317.79,1736.28z"></path> <path d="M2349.16,2221.53c-14.18,31.57-46.96,33.41-66.19,19.53C2292.05,2218.16,2320.72,2203.61,2349.16,2221.53z"></path> <path d="M2983.96,1708.96c-30.67,7.69-49.85-3.78-59.22-35.42C2952.65,1663.28,2982.7,1681.26,2983.96,1708.96z"></path> <path d="M2288.16,1880.99c24.27,20.64,26.43,48.28,5.91,68.53C2269.84,1934.11,2267.1,1904.24,2288.16,1880.99z"></path> <path d="M2322.06,2042.08c24.46-9.3,49.78,1.97,58.49,25.18c2.67,7.11,1.58,10.41-6.71,11.19 C2346.9,2081,2329.74,2069.36,2322.06,2042.08z"></path> <path d="M2422.24,1781c-26.24-9.69-34.56-34.89-21.35-64.68C2427.05,1722.15,2438.78,1757.69,2422.24,1781z"></path> <path d="M2602.41,1618.11c-23.33-16.53-25.11-44.38-4.38-68.7C2622.26,1569.09,2624.36,1602.02,2602.41,1618.11z"></path> <path d="M3052.48,1617.74c27.63,8.71,37.89,34.23,25.56,63.56C3048.95,1671.26,3038.62,1645.56,3052.48,1617.74z"></path> <path d="M2659.66,1859.34c26.15-20.93,56.82-10.49,67.7,10.6C2709.07,1890.27,2680.64,1885.98,2659.66,1859.34z"></path> <path d="M2148,2306.41c29.12,6.6,43.53,32.86,33.14,59.5C2153.38,2362.9,2136.97,2334,2148,2306.41z"></path> <path d="M2392.98,2763.69c5.72-29.48,27.99-43.34,57.84-35.99C2450,2755.73,2420.33,2774.19,2392.98,2763.69z"></path> <path d="M2540.94,1761.96c-18.05,25.69-43.64,29.25-68.44,10.04C2487.88,1747.47,2517.3,1742.91,2540.94,1761.96z"></path> <path d="M2767.48,1631.3c29.67-12.74,51.44-4.68,65.33,23.64C2809.2,1671.17,2782.58,1661.74,2767.48,1631.3z"></path> <path d="M2636.77,2323.37c14.38,24.92,3.01,52.44-26.05,63.02C2599.41,2366.26,2604.32,2331.58,2636.77,2323.37z"></path> <path d="M2996.77,1618.29c-21.54-21.2-19.87-47.96,3.86-68.94C3021.8,1570.54,3020.35,1601.32,2996.77,1618.29z"></path> <path d="M2644.5,1593.67c10.69,24.4,3.75,47.88-17.19,59.79c-9.18,5.22-10.99,4.06-13.49-6.03 C2607.91,1623.66,2617.6,1604.06,2644.5,1593.67z"></path> <path d="M3061.33,1723.42c-30.69-0.84-48.28-21.34-44.48-51.14C3048.95,1669.79,3067.49,1700.15,3061.33,1723.42z"></path> <path d="M2548.42,1652.16c20.36,21.18,17.27,51.54-6.78,66.48C2521.02,1699.99,2524.1,1669.75,2548.42,1652.16z"></path> <path d="M2554.86,1593.26c34.11,2.27,48.8,29.26,43.31,52.17C2568.95,1646.46,2550.87,1624.68,2554.86,1593.26z"></path> </g> </svg> 
